#N canvas 596 158 313 351 10;
#X obj 168 85 t f f;
#X obj 168 109 *, f 5;
#X obj 213 85 t f f;
#X obj 213 108 *, f 5;
#X obj 168 133 +, f 8;
#X obj 168 157 sqrt;
#X obj 168 229 f 1;
#X obj 168 205 t b f;
#X obj 168 253 -, f 5;
#X obj 168 181 clip 0 1;
#X obj 168 277 * 90;
#X obj 47 89 atan2;
#X obj 47 112 * 57.2958;
#X obj 47 31 inlet;
#X obj 213 34 inlet;
#X obj 47 303 outlet;
#X obj 168 301 outlet;
#X obj 47 135 circlewrap;
#X text 47 10 x;
#X text 216 12 y;
#X text 218 302 elevation;
#X text 96 303 azimuth;
#X connect 0 0 1 0;
#X connect 0 1 1 1;
#X connect 1 0 4 0;
#X connect 2 0 3 0;
#X connect 2 1 3 1;
#X connect 3 0 4 1;
#X connect 4 0 5 0;
#X connect 5 0 9 0;
#X connect 6 0 8 0;
#X connect 7 0 6 0;
#X connect 7 1 8 1;
#X connect 8 0 10 0;
#X connect 9 0 7 0;
#X connect 10 0 16 0;
#X connect 11 0 12 0;
#X connect 12 0 17 0;
#X connect 13 0 11 0;
#X connect 13 0 0 0;
#X connect 14 0 11 1;
#X connect 14 0 2 0;
#X connect 17 0 15 0;
