#N canvas 0 22 450 300 10;
#X obj 41 57 receive~ HOASource\$1;
#X obj 59 181 *~;
#X obj 65 226 throw~ speaker\$2;
#X obj 147 140 pack 0 25;
#X obj 149 114 route \$2;
#X obj 149 86 r HOAGain\$1;
#X floatatom 289 42 5 0 0 0 - - -, f 5;
#X obj 292 134 switch~;
#X obj 291 105 tgl 15 0 empty empty empty 17 7 0 10 -262144 -1 -1 0
1;
#X obj 350 73 loadbang;
#X msg 349 97 0;
#X obj 289 20 r NumSpeakers;
#X obj 289 66 >= \$2;
#X obj 152 173 line~;
#X connect 0 0 1 0;
#X connect 1 0 2 0;
#X connect 3 0 13 0;
#X connect 4 0 3 0;
#X connect 5 0 4 0;
#X connect 6 0 12 0;
#X connect 8 0 7 0;
#X connect 9 0 10 0;
#X connect 10 0 8 0;
#X connect 11 0 6 0;
#X connect 12 0 8 0;
#X connect 13 0 1 1;
