#N canvas 0 23 357 209 10;
#X obj 41 140 *~;
#X obj 56 91 pack 0 25;
#X obj 176 108 switch~;
#X obj 176 86 tgl 15 0 empty empty empty 17 7 0 10 -262144 -1 -1 0
1;
#X obj 230 37 loadbang;
#X msg 230 61 0;
#X obj 176 15 r NumSpeakers;
#X obj 56 114 line~;
#X obj 41 13 receive~ HOASource\$2;
#X obj 56 43 r HOAGain\$2;
#X obj 56 67 route \$1;
#X obj 41 167 throw~ speaker\$1;
#X obj 176 61 >= \$1;
#X connect 0 0 11 0;
#X connect 1 0 7 0;
#X connect 3 0 2 0;
#X connect 4 0 5 0;
#X connect 5 0 3 0;
#X connect 6 0 12 0;
#X connect 7 0 0 1;
#X connect 8 0 0 0;
#X connect 9 0 10 0;
#X connect 10 0 1 0;
#X connect 12 0 3 0;
