#N canvas 216 26 1045 727 10;
#X obj 27 28 HOADispatcher \$1 1;
#X obj 27 47 HOADispatcher \$1 2;
#X obj 27 66 HOADispatcher \$1 3;
#X obj 27 85 HOADispatcher \$1 4;
#X obj 27 104 HOADispatcher \$1 5;
#X obj 27 123 HOADispatcher \$1 6;
#X obj 27 142 HOADispatcher \$1 7;
#X obj 27 161 HOADispatcher \$1 8;
#X obj 27 180 HOADispatcher \$1 9;
#X obj 27 199 HOADispatcher \$1 10;
#X obj 27 218 HOADispatcher \$1 11;
#X obj 27 237 HOADispatcher \$1 12;
#X obj 27 256 HOADispatcher \$1 13;
#X obj 27 275 HOADispatcher \$1 14;
#X obj 27 294 HOADispatcher \$1 15;
#X obj 27 313 HOADispatcher \$1 16;
#X obj 27 332 HOADispatcher \$1 17;
#X obj 27 351 HOADispatcher \$1 18;
#X obj 27 370 HOADispatcher \$1 19;
#X obj 27 389 HOADispatcher \$1 20;
#X obj 27 408 HOADispatcher \$1 21;
#X obj 27 427 HOADispatcher \$1 22;
#X obj 27 446 HOADispatcher \$1 23;
#X obj 27 465 HOADispatcher \$1 24;
#X obj 27 484 HOADispatcher \$1 25;
#X obj 27 503 HOADispatcher \$1 26;
#X obj 27 522 HOADispatcher \$1 27;
#X obj 27 541 HOADispatcher \$1 28;
#X obj 27 560 HOADispatcher \$1 29;
#X obj 27 579 HOADispatcher \$1 30;
#X obj 27 598 HOADispatcher \$1 31;
#X obj 27 617 HOADispatcher \$1 32;
#X obj 155 29 HOADispatcher \$1 33;
#X obj 155 48 HOADispatcher \$1 34;
#X obj 155 67 HOADispatcher \$1 35;
#X obj 155 86 HOADispatcher \$1 36;
#X obj 155 105 HOADispatcher \$1 37;
#X obj 155 124 HOADispatcher \$1 38;
#X obj 155 143 HOADispatcher \$1 39;
#X obj 155 162 HOADispatcher \$1 40;
#X obj 155 181 HOADispatcher \$1 41;
#X obj 155 200 HOADispatcher \$1 42;
#X obj 155 219 HOADispatcher \$1 43;
#X obj 155 238 HOADispatcher \$1 44;
#X obj 155 257 HOADispatcher \$1 45;
#X obj 155 276 HOADispatcher \$1 46;
#X obj 155 295 HOADispatcher \$1 47;
#X obj 155 314 HOADispatcher \$1 48;
#X obj 155 333 HOADispatcher \$1 49;
#X obj 155 352 HOADispatcher \$1 50;
#X obj 155 372 HOADispatcher \$1 51;
#X obj 155 390 HOADispatcher \$1 52;
#X obj 155 409 HOADispatcher \$1 53;
#X obj 155 428 HOADispatcher \$1 54;
#X obj 155 447 HOADispatcher \$1 55;
#X obj 155 466 HOADispatcher \$1 56;
#X obj 155 485 HOADispatcher \$1 57;
#X obj 155 504 HOADispatcher \$1 58;
#X obj 155 523 HOADispatcher \$1 59;
#X obj 155 542 HOADispatcher \$1 60;
#X obj 155 561 HOADispatcher \$1 61;
#X obj 155 580 HOADispatcher \$1 62;
#X obj 155 599 HOADispatcher \$1 63;
#X obj 155 618 HOADispatcher \$1 64;
#X obj 353 -10 inlet~;
#X obj 516 25 inlet;
#X obj 609 -5 inlet;
#X obj 850 41 inlet;
#X text 847 16 on / off;
#X obj 610 30 spigot;
#X obj 517 59 spigot;
#X obj 354 27 *~;
#X obj 354 56 send~ HOASource\$1;
#X obj 530 277 unpack 0 0;
#X obj 529 304 + 1;
#X obj 532 333 pack 0 0;
#X obj 533 365 s HOAGain\$1;
#X obj 358 98 r SpeakerDef;
#X obj 355 315 list split 1;
#X obj 535 242 zirkhoa;
#X obj 293 455 list prepend dimension;
#X obj 288 606 list prepend speakers;
#X obj 434 410 t l l;
#X obj 488 444 list length;
#X obj 592 437 sel 2 3;
#X obj 491 500 /;
#X text 533 522 numspakers;
#N canvas 60 125 390 482 calcOrder 0;
#X obj 75 47 inlet;
#X obj 250 50 inlet;
#X text 121 51 dimension;
#X obj 141 192 spigot;
#X obj 173 169 == 2;
#X obj 241 193 spigot;
#X obj 273 170 == 3;
#X obj 144 241 - 1;
#X obj 144 267 / 2;
#X obj 190 323 i;
#X obj 244 258 sqrt;
#X obj 244 284 - 1;
#X obj 192 365 outlet;
#X connect 0 0 4 0;
#X connect 0 0 6 0;
#X connect 1 0 5 0;
#X connect 1 0 3 0;
#X connect 3 0 7 0;
#X connect 4 0 3 1;
#X connect 5 0 10 0;
#X connect 6 0 5 1;
#X connect 7 0 8 0;
#X connect 8 0 9 0;
#X connect 9 0 12 0;
#X connect 10 0 11 0;
#X connect 11 0 9 0;
#X restore 431 549 pd calcOrder;
#X obj 434 604 list prepend order;
#X obj 434 632 list trim;
#X obj 620 276 print zirkhoa;
#X msg 741 304 getOrder;
#X msg 750 352 getSpeakers;
#X msg 736 284 getDimension;
#X msg 744 329 getHarmonics;
#X obj 437 663 print HOA_Speakers;
#X obj 575 475 f 1;
#X obj 605 475 f 2;
#X obj 355 280 t l l;
#X msg 376 375 \$1;
#N canvas 750 318 441 404 degreeToRadian 0;
#X obj -340 197 list split 1;
#X obj -340 114 until;
#X obj -340 152 list append;
#X obj -210 197 bang;
#X obj -341 222 / 180;
#X obj -340 256 * 3.14159;
#X obj -173 271 bng 15 250 50 0 empty empty empty 0 -6 0 8 -262144
-1 -1;
#X obj -217 315 t l;
#X obj -324 293 list prepend;
#X obj -363 332 list append;
#X obj -373 48 inlet;
#X obj -314 81 t b l b;
#X obj -380 73 t b l;
#X obj -360 362 outlet;
#X connect 0 0 4 0;
#X connect 0 1 2 1;
#X connect 0 2 3 0;
#X connect 1 0 2 0;
#X connect 2 0 0 0;
#X connect 3 0 1 1;
#X connect 4 0 5 0;
#X connect 5 0 8 0;
#X connect 6 0 8 1;
#X connect 7 0 8 1;
#X connect 8 0 7 0;
#X connect 8 0 9 1;
#X connect 9 0 13 0;
#X connect 10 0 12 0;
#X connect 11 0 1 0;
#X connect 11 1 2 1;
#X connect 11 2 6 0;
#X connect 12 0 9 0;
#X connect 12 1 11 0;
#X restore 289 553 pd degreeToRadian;
#X obj 476 166 / 180;
#X obj 593 91 f 1;
#X obj 476 112 unpack 0 0;
#X obj 544 165 / 180;
#X obj 544 191 * 3.14159;
#X obj 476 215 pack 0 0;
#X obj 594 120 - 0;
#X obj 594 61 t b f;
#X obj 476 191 * -3.14159;
#X obj 476 138 - 90;
#X msg 414 138 \$1;
#X obj 356 130 t a a;
#X obj 416 184 == 2;
#X obj 416 158 t f f;
#X obj 450 184 == 3;
#X obj 419 211 ||;
#X obj 356 251 spigot;
#X obj 418 235 tgl 15 0 empty empty empty 17 7 0 10 -262144 -1 -1 0
1;
#X obj 734 13 inlet;
#X text 733 -6 optim;
#X obj 739 153 list prepend optim;
#X obj 739 185 list trim;
#X msg 740 257 getOptim;
#X obj 850 119 switch~;
#X obj 850 87 tgl 15 0 empty empty empty 17 7 0 10 -262144 -1 -1 0
1;
#X msg 922 69 0;
#X obj 922 44 loadbang;
#X connect 64 0 71 0;
#X connect 65 0 70 0;
#X connect 66 0 69 0;
#X connect 67 0 69 1;
#X connect 67 0 70 1;
#X connect 67 0 71 1;
#X connect 67 0 125 0;
#X connect 69 0 108 0;
#X connect 70 0 103 0;
#X connect 71 0 72 0;
#X connect 73 0 74 0;
#X connect 73 1 75 1;
#X connect 74 0 75 0;
#X connect 75 0 76 0;
#X connect 77 0 112 0;
#X connect 78 1 82 0;
#X connect 79 0 73 0;
#X connect 79 1 90 0;
#X connect 80 0 89 0;
#X connect 81 0 89 0;
#X connect 82 0 100 0;
#X connect 82 1 83 0;
#X connect 83 0 85 0;
#X connect 84 0 96 0;
#X connect 84 1 97 0;
#X connect 85 0 87 1;
#X connect 87 0 88 0;
#X connect 88 0 89 0;
#X connect 89 0 79 0;
#X connect 91 0 79 0;
#X connect 92 0 79 0;
#X connect 93 0 79 0;
#X connect 94 0 79 0;
#X connect 96 0 85 1;
#X connect 97 0 85 1;
#X connect 98 0 78 0;
#X connect 98 1 99 0;
#X connect 98 1 84 0;
#X connect 99 0 80 0;
#X connect 99 0 87 0;
#X connect 100 0 81 0;
#X connect 101 0 109 0;
#X connect 102 0 107 0;
#X connect 103 0 110 0;
#X connect 103 1 104 0;
#X connect 104 0 105 0;
#X connect 105 0 106 1;
#X connect 106 0 79 0;
#X connect 107 0 79 1;
#X connect 108 0 102 0;
#X connect 108 1 107 1;
#X connect 109 0 106 0;
#X connect 110 0 101 0;
#X connect 111 0 114 0;
#X connect 112 0 117 0;
#X connect 112 1 111 0;
#X connect 113 0 116 0;
#X connect 114 0 113 0;
#X connect 114 1 115 0;
#X connect 115 0 116 1;
#X connect 116 0 118 0;
#X connect 117 0 98 0;
#X connect 118 0 117 1;
#X connect 119 0 121 0;
#X connect 121 0 122 0;
#X connect 122 0 79 0;
#X connect 123 0 79 0;
#X connect 125 0 124 0;
#X connect 126 0 125 0;
#X connect 127 0 126 0;
