#N canvas 372 136 731 576 10;
#X obj 59 40 inlet~;
#X obj 212 40 inlet;
#X obj 380 40 inlet;
#X obj 576 40 inlet;
#X text 573 16 on / off;
#X obj 380 121 spigot;
#X obj 212 120 spigot;
#X obj 59 77 *~;
#X obj 59 106 send~ HOASource\$1;
#X obj 212 455 unpack 0 0;
#X obj 212 481 + 1;
#X obj 212 507 pack 0 0;
#X obj 212 533 s HOAGain\$1;
#X obj 61 147 r SpeakerDef;
#X obj 212 400 zirkhoa;
#X obj 251 428 print zirkhoa;
#X obj 380 177 f 1;
#X obj 380 208 - 0;
#X obj 380 150 t b f;
#X msg 121 202 \$1;
#X obj 61 172 t a a;
#X obj 121 252 == 2;
#X obj 121 226 t f f;
#X obj 155 252 == 3;
#X obj 121 278 ||;
#X obj 121 303 tgl 15 0 empty empty empty 17 7 0 10 -262144 -1 -1 0
1;
#X obj 437 40 inlet;
#X text 436 16 optim;
#X obj 437 208 list prepend optim;
#X obj 437 239 list trim;
#X obj 576 150 switch~;
#X obj 576 118 tgl 15 0 empty empty empty 17 7 0 10 -262144 -1 -1 0
1;
#X msg 648 98 0;
#X obj 648 73 loadbang;
#X obj 212 192 xyz2aed;
#X obj 407 535 clone -s 1 64 HOADispatcher \$1;
#X obj 61 455 print HOA_Speakers\$1;
#N canvas 302 54 580 401 speaker 0;
#X obj 210 166 list prepend dimension;
#X obj 49 205 list prepend speakers;
#N canvas 165 141 294 473 calcOrder 0;
#X obj 36 49 inlet;
#X obj 70 320 spigot;
#X obj 103 295 == 2;
#X obj 201 321 spigot;
#X obj 234 296 == 3;
#X obj 70 349 - 1;
#X obj 70 375 / 2;
#X obj 201 350 sqrt;
#X obj 201 376 - 1;
#X obj 114 432 outlet;
#X obj 114 402 i;
#X obj 36 117 list split 1;
#X obj 70 208 list length;
#X obj 157 208 sel 2 3;
#X obj 70 259 /;
#X msg 157 230 1;
#X msg 188 231 2;
#X text 102 259 numspeakers;
#X obj 36 80 t l l;
#X msg 157 121 \$1;
#X obj 157 149 t f f;
#X connect 0 0 18 0;
#X connect 1 0 5 0;
#X connect 2 0 1 1;
#X connect 3 0 7 0;
#X connect 4 0 3 1;
#X connect 5 0 6 0;
#X connect 6 0 10 0;
#X connect 7 0 8 0;
#X connect 8 0 10 0;
#X connect 10 0 9 0;
#X connect 11 1 12 0;
#X connect 12 0 14 0;
#X connect 13 0 15 0;
#X connect 13 1 16 0;
#X connect 14 0 1 0;
#X connect 14 0 3 0;
#X connect 15 0 14 1;
#X connect 16 0 14 1;
#X connect 18 0 11 0;
#X connect 18 1 19 0;
#X connect 19 0 20 0;
#X connect 20 0 13 0;
#X connect 20 1 4 0;
#X connect 20 1 2 0;
#X restore 404 121 pd calcOrder;
#X obj 404 240 list prepend order;
#X obj 210 323 list trim;
#X msg 210 112 \$1;
#N canvas 750 318 275 406 degreeToRadian 0;
#X obj 83 203 list split 1;
#X obj 83 132 until;
#X obj 83 158 list append;
#X obj 83 232 / 180;
#X obj 83 261 * 3.14159;
#X obj 170 315 t l;
#X obj 83 291 list prepend;
#X obj 60 337 list append;
#X obj 60 30 inlet;
#X obj 127 92 t b l b;
#X obj 60 55 t b l;
#X obj 60 366 outlet;
#X msg 209 177 bang;
#X msg 165 176 bang;
#X connect 0 0 3 0;
#X connect 0 1 2 1;
#X connect 0 2 13 0;
#X connect 1 0 2 0;
#X connect 2 0 0 0;
#X connect 3 0 4 0;
#X connect 4 0 6 0;
#X connect 5 0 6 1;
#X connect 6 0 5 0;
#X connect 6 0 7 1;
#X connect 7 0 11 0;
#X connect 8 0 10 0;
#X connect 9 0 1 0;
#X connect 9 1 2 1;
#X connect 9 2 12 0;
#X connect 10 0 7 0;
#X connect 10 1 9 0;
#X connect 12 0 6 1;
#X connect 13 0 1 1;
#X restore 49 166 pd degreeToRadian;
#X obj 15 116 list split 1;
#X obj 191 65 t l l l;
#X obj 191 32 inlet;
#X obj 210 353 outlet;
#X obj 255 265 > 0;
#X text 247 33 message order: dimension \, order \, speakers;
#X text 276 297 dont send if order is < 1 \, use stereo instead;
#X obj 443 214 s \$0-stereo;
#X obj 443 191 < 1;
#X obj 210 297 spigot 0;
#X obj 404 166 t f f f;
#X connect 0 0 16 0;
#X connect 1 0 16 0;
#X connect 2 0 17 0;
#X connect 3 0 16 0;
#X connect 4 0 10 0;
#X connect 5 0 0 0;
#X connect 6 0 1 0;
#X connect 7 1 6 0;
#X connect 8 0 7 0;
#X connect 8 1 5 0;
#X connect 8 2 2 0;
#X connect 9 0 8 0;
#X connect 11 0 16 1;
#X connect 15 0 14 0;
#X connect 16 0 4 0;
#X connect 17 0 3 0;
#X connect 17 1 11 0;
#X connect 17 2 15 0;
#X restore 61 343 pd speaker definition;
#X obj 106 401 tgl 15 0 empty empty empty 17 7 0 10 -262144 -1 -1 0
1;
#X obj 257 245 r \$0-stereo;
#X obj 257 271 sel 0;
#X msg 257 295 1;
#X msg 286 295 0;
#X obj 431 428 zirk_stereo;
#X obj 431 356 unpack f f;
#X obj 464 295 r \$0-stereo;
#N canvas 0 23 290 284 convert 0;
#X obj 75 49 inlet;
#X obj 75 136 / 180;
#X obj 75 82 unpack 0 0, f 12;
#X obj 144 135 / 180;
#X obj 144 161 * 3.14159;
#X obj 75 185 pack 0 0;
#X obj 75 161 * -3.14159;
#X obj 75 110 - 90;
#X obj 75 218 outlet;
#X connect 0 0 2 0;
#X connect 1 0 6 0;
#X connect 2 0 7 0;
#X connect 2 1 3 0;
#X connect 3 0 4 0;
#X connect 4 0 5 1;
#X connect 5 0 8 0;
#X connect 6 0 5 0;
#X connect 7 0 1 0;
#X restore 212 220 pd convert ranges;
#X obj 431 385 expr ($f1 + 1) / 2;
#X obj 61 428 spigot 0;
#X obj 212 322 spigot;
#X obj 309 360 spigot;
#X obj 431 329 spigot;
#X obj 61 319 spigot 1;
#X connect 0 0 7 0;
#X connect 1 0 6 0;
#X connect 2 0 5 0;
#X connect 3 0 5 1;
#X connect 3 0 6 1;
#X connect 3 0 7 1;
#X connect 3 0 31 0;
#X connect 5 0 18 0;
#X connect 6 0 34 0;
#X connect 6 0 51 0;
#X connect 7 0 8 0;
#X connect 9 0 10 0;
#X connect 9 1 11 1;
#X connect 10 0 11 0;
#X connect 11 0 12 0;
#X connect 13 0 20 0;
#X connect 14 0 9 0;
#X connect 14 1 15 0;
#X connect 16 0 17 0;
#X connect 17 0 50 0;
#X connect 18 0 16 0;
#X connect 18 1 17 1;
#X connect 19 0 22 0;
#X connect 20 0 52 0;
#X connect 20 1 19 0;
#X connect 21 0 24 0;
#X connect 22 0 21 0;
#X connect 22 1 23 0;
#X connect 23 0 24 1;
#X connect 24 0 25 0;
#X connect 26 0 28 0;
#X connect 28 0 29 0;
#X connect 29 0 14 0;
#X connect 31 0 30 0;
#X connect 32 0 31 0;
#X connect 33 0 32 0;
#X connect 34 0 46 0;
#X connect 37 0 14 0;
#X connect 37 0 48 0;
#X connect 38 0 48 1;
#X connect 39 0 40 0;
#X connect 40 0 41 0;
#X connect 40 1 42 0;
#X connect 41 0 49 1;
#X connect 41 0 50 1;
#X connect 42 0 49 1;
#X connect 42 0 50 1;
#X connect 43 0 9 0;
#X connect 44 0 47 0;
#X connect 45 0 51 1;
#X connect 46 0 49 0;
#X connect 47 0 43 0;
#X connect 48 0 36 0;
#X connect 49 0 14 0;
#X connect 50 0 14 1;
#X connect 51 0 44 0;
#X connect 52 0 37 0;
