#N canvas 372 136 728 761 10;
#X obj 59 40 inlet~;
#X obj 212 96 inlet;
#X obj 318 91 inlet;
#X obj 576 72 inlet;
#X text 573 47 on / off;
#X obj 318 121 spigot;
#X obj 212 120 spigot;
#X obj 59 77 *~;
#X obj 59 106 send~ HOASource\$1;
#X obj 271 345 unpack 0 0;
#X obj 271 375 + 1;
#X obj 271 401 pack 0 0;
#X obj 271 427 s HOAGain\$1;
#X obj 61 147 r SpeakerDef;
#X obj 61 383 list split 1;
#X obj 271 310 zirkhoa;
#X obj 67 507 list prepend dimension;
#X obj 24 650 list prepend speakers;
#X obj 171 439 t l l;
#X obj 236 507 list length;
#X obj 323 507 sel 2 3;
#X obj 236 568 /;
#N canvas 60 125 258 382 calcOrder 0;
#X obj 82 47 inlet;
#X obj 149 47 inlet;
#X text 80 24 dimension;
#X obj 49 191 spigot;
#X obj 82 166 == 2;
#X obj 149 191 spigot;
#X obj 182 166 == 3;
#X obj 49 220 - 1;
#X obj 49 246 / 2;
#X obj 90 287 i;
#X obj 149 220 sqrt;
#X obj 149 246 - 1;
#X obj 90 319 outlet;
#X connect 0 0 4 0;
#X connect 0 0 6 0;
#X connect 1 0 5 0;
#X connect 1 0 3 0;
#X connect 3 0 7 0;
#X connect 4 0 3 1;
#X connect 5 0 10 0;
#X connect 6 0 5 1;
#X connect 7 0 8 0;
#X connect 8 0 9 0;
#X connect 9 0 12 0;
#X connect 10 0 11 0;
#X connect 11 0 9 0;
#X restore 167 621 pd calcOrder;
#X obj 167 649 list prepend order;
#X obj 167 700 list trim;
#X obj 358 344 print zirkhoa;
#X obj 167 731 print HOA_Speakers;
#X obj 61 348 t l l;
#X msg 120 440 \$1;
#N canvas 750 318 275 406 degreeToRadian 0;
#X obj 83 203 list split 1;
#X obj 83 132 until;
#X obj 83 158 list append;
#X obj 83 232 / 180;
#X obj 83 261 * 3.14159;
#X obj 170 315 t l;
#X obj 83 291 list prepend;
#X obj 60 337 list append;
#X obj 60 30 inlet;
#X obj 127 92 t b l b;
#X obj 60 55 t b l;
#X obj 60 366 outlet;
#X msg 209 177 bang;
#X msg 165 176 bang;
#X connect 0 0 3 0;
#X connect 0 1 2 1;
#X connect 0 2 13 0;
#X connect 1 0 2 0;
#X connect 2 0 0 0;
#X connect 3 0 4 0;
#X connect 4 0 6 0;
#X connect 5 0 6 1;
#X connect 6 0 5 0;
#X connect 6 0 7 1;
#X connect 7 0 11 0;
#X connect 8 0 10 0;
#X connect 9 0 1 0;
#X connect 9 1 2 1;
#X connect 9 2 12 0;
#X connect 10 0 7 0;
#X connect 10 1 9 0;
#X connect 12 0 6 1;
#X connect 13 0 1 1;
#X restore 24 621 pd degreeToRadian;
#X obj 212 234 / 180;
#X obj 318 177 f 1;
#X obj 212 180 unpack 0 0, f 12;
#X obj 280 233 / 180;
#X obj 280 259 * 3.14159;
#X obj 212 283 pack 0 0;
#X obj 318 206 - 0;
#X obj 318 150 t b f;
#X obj 212 259 * -3.14159;
#X obj 212 206 - 90;
#X msg 121 201 \$1;
#X obj 61 172 t a a;
#X obj 121 252 == 2;
#X obj 121 226 t f f;
#X obj 155 252 == 3;
#X obj 121 278 ||;
#X obj 61 319 spigot;
#X obj 121 303 tgl 15 0 empty empty empty 17 7 0 10 -262144 -1 -1 0
1;
#X obj 417 41 inlet;
#X text 416 22 optim;
#X obj 417 207 list prepend optim;
#X obj 417 239 list trim;
#X obj 576 150 switch~;
#X obj 576 118 tgl 15 0 empty empty empty 17 7 0 10 -262144 -1 -1 0
1;
#X msg 648 98 0;
#X obj 648 73 loadbang;
#X obj 212 141 xyz2aed;
#X obj 453 646 clone -s 1 64 HOADispatcher \$1;
#X msg 323 539 1;
#X msg 354 540 2;
#X text 269 590 numspeakers;
#X connect 0 0 7 0;
#X connect 1 0 6 0;
#X connect 2 0 5 0;
#X connect 3 0 5 1;
#X connect 3 0 6 1;
#X connect 3 0 7 1;
#X connect 3 0 53 0;
#X connect 5 0 37 0;
#X connect 6 0 56 0;
#X connect 7 0 8 0;
#X connect 9 0 10 0;
#X connect 9 1 11 1;
#X connect 10 0 11 0;
#X connect 11 0 12 0;
#X connect 13 0 41 0;
#X connect 14 1 18 0;
#X connect 15 0 9 0;
#X connect 15 1 25 0;
#X connect 16 0 24 0;
#X connect 17 0 24 0;
#X connect 18 0 29 0;
#X connect 18 1 19 0;
#X connect 19 0 21 0;
#X connect 20 0 58 0;
#X connect 20 1 59 0;
#X connect 21 0 22 1;
#X connect 22 0 23 0;
#X connect 23 0 24 0;
#X connect 24 0 15 0;
#X connect 27 0 14 0;
#X connect 27 1 28 0;
#X connect 27 1 20 0;
#X connect 28 0 16 0;
#X connect 28 0 22 0;
#X connect 29 0 17 0;
#X connect 30 0 38 0;
#X connect 31 0 36 0;
#X connect 32 0 39 0;
#X connect 32 1 33 0;
#X connect 33 0 34 0;
#X connect 34 0 35 1;
#X connect 35 0 15 0;
#X connect 36 0 15 1;
#X connect 37 0 31 0;
#X connect 37 1 36 1;
#X connect 38 0 35 0;
#X connect 39 0 30 0;
#X connect 40 0 43 0;
#X connect 41 0 46 0;
#X connect 41 1 40 0;
#X connect 42 0 45 0;
#X connect 43 0 42 0;
#X connect 43 1 44 0;
#X connect 44 0 45 1;
#X connect 45 0 47 0;
#X connect 46 0 27 0;
#X connect 47 0 46 1;
#X connect 48 0 50 0;
#X connect 50 0 51 0;
#X connect 51 0 15 0;
#X connect 53 0 52 0;
#X connect 54 0 53 0;
#X connect 55 0 54 0;
#X connect 56 0 32 0;
#X connect 58 0 21 1;
#X connect 59 0 21 1;
