#N canvas 245 52 624 820 10;
#X obj 165 26 r ID;
#X obj 164 47 route \$1;
#X obj 465 184 switch~;
#X obj 465 152 tgl 15 0 empty empty empty 17 7 0 10 -262144 -1 -1 0
1;
#X obj 491 111 loadbang;
#X obj 164 347 *~;
#X obj 181 260 loadbang;
#X obj 330 371 symbol;
#X obj 212 313 == 0;
#X msg 181 284 0;
#X obj 331 685 tgl 15 0 empty empty empty 17 7 0 10 -262144 -1 -1 0
1;
#X msg 330 449 1;
#X msg 439 451 1;
#X msg 490 596 0;
#X obj 330 398 t s b, f 27;
#X obj 201 112 s \$1_position;
#X obj 284 514 r \$1_position;
#X obj 44 307 list prepend set;
#X obj 44 337 list trim;
#X obj 44 364 throw~ out0;
#X obj 427 256 s \$1_oscAddress;
#X obj 438 686 tgl 15 0 empty empty empty 17 7 0 10 -262144 -1 -1 0
1;
#X obj 239 134 s \$1_span;
#X obj 310 535 r \$1_span;
#X obj 310 557 * 100;
#X obj 464 21 print ID \$1 activation, f 12;
#X obj 164 179 list prepend set;
#X obj 163 202 list trim;
#X obj 164 225 receive~ noinput;
#X obj 392 513 r \$1_position;
#X obj 408 533 r \$1_span;
#X obj 47 542 *~;
#X obj 259 549 *~;
#X obj 47 490 == 1;
#X obj 132 489 == 0;
#X obj 352 207 s \$1_optim;
#X obj 143 437 loadbang;
#X msg 143 462 0;
#X obj 257 720 VBAPModule \$1;
#X obj 106 619 pack 0 0 0;
#X obj 106 584 i, f 4;
#X obj 106 644 unpack 0 0 0;
#X obj 106 546 sel 0 1;
#X msg 488 708 0;
#X obj 77 428 r HRTF;
#X obj 331 777 print VBAPEnable \$1;
#X obj 277 158 s \$1_mute;
#X obj 212 285 r \$1_mute;
#X obj 314 182 s \$1_algorithm;
#X obj 330 348 r \$1_algorithm;
#X obj 390 232 s \$1_directOut;
#X obj 44 283 r \$1_directOut;
#N canvas 0 22 450 300 IDLevelReport 0;
#X obj 164 107 list prepend \$1;
#X obj 160 236 s toZTE;
#X obj 160 211 list trim;
#X obj 164 68 env~ 2048;
#X obj 164 88 change;
#X obj 162 186 list prepend IDDB;
#X obj 209 162 tgl 15 0 empty empty empty 17 7 0 10 -262144 -1 -1 0
1;
#X obj 163 161 spigot;
#X obj 208 134 r IDLevelReport;
#X obj 157 27 inlet~;
#X connect 0 0 7 0;
#X connect 2 0 1 0;
#X connect 3 0 4 0;
#X connect 4 0 0 0;
#X connect 5 0 2 0;
#X connect 6 0 7 1;
#X connect 7 0 5 0;
#X connect 8 0 6 0;
#X connect 9 0 3 0;
#X restore 207 390 pd IDLevelReport;
#X msg 491 135 0;
#X obj 164 70 route input position span muted algorithm optim directOut
oscAddress activate;
#X obj 522 70 print ID \$1 msg_error, f 11;
#X obj 330 420 sel VBAP HOA, f 20;
#X text 390 734 Ambisonic coming soon;
#X obj 46 736 throw~ hrtfL;
#X obj 133 736 throw~ hrtfR;
#N canvas 0 22 450 300 HRTF 0;
#X obj 134 72 r \$1_position;
#X obj 133 105 unpack 0 0;
#X obj 133 164 pack 0 25;
#X obj 197 167 pack 0 25;
#X obj 195 189 line 0 5;
#X obj 130 186 line 0 5;
#N canvas 0 22 450 300 hrtf_convert 0;
#X obj 133 119 * -1;
#X obj 131 166 + 360;
#X obj 131 141 moses 0;
#X obj 136 71 inlet;
#X obj 136 205 outlet;
#X connect 0 0 2 0;
#X connect 1 0 4 0;
#X connect 2 0 1 0;
#X connect 2 1 4 0;
#X connect 3 0 0 0;
#X restore 132 138 pd hrtf_convert;
#X obj 40 112 inlet~;
#X obj 88 250 outlet~;
#X obj 146 247 outlet~;
#X obj 282 147 switch~;
#X obj 281 122 tgl 15 0 empty empty empty 17 7 0 10 -262144 -1 -1 0
1;
#X msg 307 105 0;
#X obj 346 73 loadbang;
#X obj 280 67 r HRTF;
#X text 82 210 hrtf;
#X connect 0 0 1 0;
#X connect 1 0 6 0;
#X connect 1 1 3 0;
#X connect 2 0 5 0;
#X connect 3 0 4 0;
#X connect 6 0 2 0;
#X connect 11 0 10 0;
#X connect 12 0 11 0;
#X connect 13 0 12 0;
#X connect 14 0 11 0;
#X restore 46 705 pd HRTF;
#X text 204 11 position format should be x y z;
#X connect 0 0 1 0;
#X connect 1 0 54 0;
#X connect 3 0 2 0;
#X connect 4 0 53 0;
#X connect 5 0 19 0;
#X connect 5 0 31 1;
#X connect 5 0 32 1;
#X connect 5 0 52 0;
#X connect 6 0 9 0;
#X connect 7 0 14 0;
#X connect 8 0 5 1;
#X connect 9 0 8 0;
#X connect 10 0 38 3;
#X connect 10 0 40 1;
#X connect 10 0 45 0;
#X connect 11 0 10 0;
#X connect 12 0 21 0;
#X connect 13 0 10 0;
#X connect 13 0 21 0;
#X connect 14 0 56 0;
#X connect 14 1 13 0;
#X connect 16 0 38 1;
#X connect 17 0 18 0;
#X connect 18 0 19 0;
#X connect 21 0 39 1;
#X connect 23 0 24 0;
#X connect 24 0 38 2;
#X connect 26 0 27 0;
#X connect 27 0 28 0;
#X connect 28 0 5 0;
#X connect 31 0 60 0;
#X connect 32 0 38 0;
#X connect 33 0 31 0;
#X connect 34 0 32 0;
#X connect 36 0 37 0;
#X connect 37 0 34 0;
#X connect 39 0 41 0;
#X connect 40 0 39 0;
#X connect 41 0 10 0;
#X connect 41 1 21 0;
#X connect 42 0 40 0;
#X connect 42 1 43 0;
#X connect 43 0 38 3;
#X connect 44 0 33 0;
#X connect 44 0 34 0;
#X connect 44 0 42 0;
#X connect 47 0 8 0;
#X connect 49 0 7 0;
#X connect 51 0 17 0;
#X connect 53 0 3 0;
#X connect 54 0 26 0;
#X connect 54 1 15 0;
#X connect 54 2 22 0;
#X connect 54 3 46 0;
#X connect 54 4 48 0;
#X connect 54 5 35 0;
#X connect 54 6 50 0;
#X connect 54 7 20 0;
#X connect 54 8 3 0;
#X connect 54 8 25 0;
#X connect 54 9 55 0;
#X connect 56 0 11 0;
#X connect 56 1 12 0;
#X connect 60 0 58 0;
#X connect 60 1 59 0;
