#N canvas 0 22 465 487 10;
#X obj 99 223 send~ sf\$1-1;
#X obj 132 249 send~ sf\$1-2;
#X obj 165 274 send~ sf\$1-3;
#X obj 198 300 send~ sf\$1-4;
#X obj 232 327 send~ sf\$1-5;
#X obj 264 353 send~ sf\$1-6;
#X obj 297 378 send~ sf\$1-7;
#X obj 330 404 send~ sf\$1-8;
#X obj 48 11 r SoundFile;
#X obj 48 67 route open play stop, f 60;
#X msg 168 123 1;
#X msg 286 123 0, f 2;
#X obj 48 39 route \$1;
#X obj 48 95 list prepend open;
#X obj 48 123 list trim;
#X obj 99 165 readsf~ 8, f 45;
#X connect 8 0 12 0;
#X connect 9 0 13 0;
#X connect 9 1 10 0;
#X connect 9 2 11 0;
#X connect 10 0 15 0;
#X connect 11 0 15 0;
#X connect 12 0 9 0;
#X connect 13 0 14 0;
#X connect 14 0 15 0;
#X connect 15 0 0 0;
#X connect 15 1 1 0;
#X connect 15 2 2 0;
#X connect 15 3 3 0;
#X connect 15 4 4 0;
#X connect 15 5 5 0;
#X connect 15 6 6 0;
#X connect 15 7 7 0;
