#N canvas 548 107 774 668 10;
#X obj 284 38 inlet~;
#X obj 356 137 inlet;
#X obj 356 185 t b a, f 7;
#X obj 356 350 unpack 0 0;
#X obj 356 374 + 1;
#X obj 356 398 pack 0 0;
#X obj 284 101 send~ VBAPSource\$1;
#X obj 356 422 s VBAPGain\$1;
#X obj 560 32 inlet;
#X obj 356 161 spigot;
#X obj 284 74 *~;
#X obj 393 260 unpack 0 0;
#X text 560 12 on / off;
#X obj 489 251 inlet;
#X obj 489 283 spigot;
#X obj 18 435 VBAPDispatcher \$1 22;
#X obj 295 267 r vbapDef;
#X obj 466 416 route tripletDefinition;
#X text 481 392 filter out;
#X obj 393 284 circlewrap;
#X obj 594 117 switch~;
#X obj 594 97 tgl 15 0 empty empty empty 17 7 0 10 -262144 -1 -1 0
1;
#X obj 603 511 s toZTE;
#X obj 601 464 list prepend triplet;
#X obj 602 488 list trim;
#X obj 602 443 list prepend \$1;
#X msg 633 64 0;
#X obj 633 33 loadbang;
#X obj 18 33 VBAPDispatcher \$1 1;
#X obj 18 52 VBAPDispatcher \$1 2;
#X obj 18 71 VBAPDispatcher \$1 3;
#X obj 18 90 VBAPDispatcher \$1 4;
#X obj 18 109 VBAPDispatcher \$1 5;
#X obj 18 128 VBAPDispatcher \$1 6;
#X obj 18 147 VBAPDispatcher \$1 7;
#X obj 18 166 VBAPDispatcher \$1 8;
#X obj 18 185 VBAPDispatcher \$1 9;
#X obj 18 204 VBAPDispatcher \$1 10;
#X obj 18 223 VBAPDispatcher \$1 11;
#X obj 18 242 VBAPDispatcher \$1 12;
#X obj 18 261 VBAPDispatcher \$1 13;
#X obj 18 280 VBAPDispatcher \$1 14;
#X obj 18 299 VBAPDispatcher \$1 15;
#X obj 19 318 VBAPDispatcher \$1 16;
#X obj 18 337 VBAPDispatcher \$1 17;
#X obj 18 377 VBAPDispatcher \$1 19;
#X obj 18 357 VBAPDispatcher \$1 18;
#X obj 18 397 VBAPDispatcher \$1 20;
#X obj 18 416 VBAPDispatcher \$1 21;
#X obj 18 454 VBAPDispatcher \$1 23;
#X obj 18 473 VBAPDispatcher \$1 24;
#X obj 18 492 VBAPDispatcher \$1 25;
#X obj 18 511 VBAPDispatcher \$1 26;
#X obj 18 531 VBAPDispatcher \$1 27;
#X obj 18 550 VBAPDispatcher \$1 28;
#X obj 18 570 VBAPDispatcher \$1 29;
#X obj 18 590 VBAPDispatcher \$1 30;
#X obj 18 610 VBAPDispatcher \$1 31;
#X obj 18 629 VBAPDispatcher \$1 32;
#X obj 148 31 VBAPDispatcher \$1 33;
#X obj 148 51 VBAPDispatcher \$1 34;
#X obj 148 71 VBAPDispatcher \$1 35;
#X obj 148 90 VBAPDispatcher \$1 36;
#X obj 148 110 VBAPDispatcher \$1 37;
#X obj 148 130 VBAPDispatcher \$1 38;
#X obj 148 149 VBAPDispatcher \$1 39;
#X obj 148 168 VBAPDispatcher \$1 40;
#X obj 148 187 VBAPDispatcher \$1 41;
#X obj 148 206 VBAPDispatcher \$1 42;
#X obj 148 225 VBAPDispatcher \$1 43;
#X obj 148 244 VBAPDispatcher \$1 44;
#X obj 148 263 VBAPDispatcher \$1 45;
#X obj 148 282 VBAPDispatcher \$1 46;
#X obj 148 302 VBAPDispatcher \$1 47;
#X obj 149 322 VBAPDispatcher \$1 48;
#X obj 149 341 VBAPDispatcher \$1 49;
#X obj 149 360 VBAPDispatcher \$1 50;
#X obj 150 380 VBAPDispatcher \$1 51;
#X obj 150 400 VBAPDispatcher \$1 52;
#X obj 150 419 VBAPDispatcher \$1 53;
#X obj 150 438 VBAPDispatcher \$1 54;
#X obj 150 457 VBAPDispatcher \$1 55;
#X obj 150 476 VBAPDispatcher \$1 56;
#X obj 150 495 VBAPDispatcher \$1 57;
#X obj 150 514 VBAPDispatcher \$1 58;
#X obj 150 533 VBAPDispatcher \$1 59;
#X obj 150 552 VBAPDispatcher \$1 60;
#X obj 150 571 VBAPDispatcher \$1 61;
#X obj 150 590 VBAPDispatcher \$1 62;
#X obj 150 609 VBAPDispatcher \$1 63;
#X obj 150 628 VBAPDispatcher \$1 64;
#X obj 394 215 xyz2aed;
#X obj 356 326 zirkvbap 0 0 0, f 19;
#X connect 0 0 10 0;
#X connect 1 0 9 0;
#X connect 2 0 92 0;
#X connect 2 1 91 0;
#X connect 3 0 4 0;
#X connect 3 1 5 1;
#X connect 4 0 5 0;
#X connect 5 0 7 0;
#X connect 8 0 9 1;
#X connect 8 0 10 1;
#X connect 8 0 14 1;
#X connect 8 0 21 0;
#X connect 9 0 2 0;
#X connect 10 0 6 0;
#X connect 11 0 19 0;
#X connect 11 1 92 2;
#X connect 13 0 14 0;
#X connect 14 0 92 3;
#X connect 16 0 92 0;
#X connect 17 1 25 0;
#X connect 19 0 92 1;
#X connect 21 0 20 0;
#X connect 23 0 24 0;
#X connect 24 0 22 0;
#X connect 25 0 23 0;
#X connect 26 0 21 0;
#X connect 27 0 26 0;
#X connect 91 0 11 0;
#X connect 92 0 3 0;
#X connect 92 4 17 0;
