#N canvas 179 403 435 173 10;
#X obj 25 113 *~;
#X obj 130 65 pack 0 25;
#X obj 305 114 switch~;
#X obj 305 89 tgl 15 0 empty empty empty 17 7 0 10 -262144 -1 -1 0
1;
#X obj 360 42 loadbang;
#X msg 360 65 0;
#X obj 305 16 r NumSpeakers;
#X obj 130 89 line~;
#X obj 218 42 route speed;
#X obj 25 16 receive~ VBAPSource\$2, f 13;
#X obj 130 16 r VBAPGain\$2;
#X obj 130 42 route \$1;
#X obj 25 141 throw~ speaker\$1;
#X obj 305 65 >= \$1;
#X obj 218 16 r #zirk_vbap;
#X connect 0 0 12 0;
#X connect 1 0 7 0;
#X connect 3 0 2 0;
#X connect 4 0 5 0;
#X connect 5 0 3 0;
#X connect 6 0 13 0;
#X connect 7 0 0 1;
#X connect 8 0 1 1;
#X connect 9 0 0 0;
#X connect 10 0 11 0;
#X connect 11 0 1 0;
#X connect 13 0 3 0;
#X connect 14 0 8 0;
