#N canvas 548 107 554 584 10;
#X obj 49 55 inlet~;
#X obj 121 154 inlet;
#X obj 121 202 t b a, f 6;
#X obj 121 367 unpack 0 0;
#X obj 121 391 + 1;
#X obj 121 415 pack 0 0;
#X obj 49 118 send~ VBAPSource\$1;
#X obj 121 439 s VBAPGain\$1;
#X obj 325 49 inlet;
#X obj 121 178 spigot;
#X obj 49 91 *~;
#X obj 158 277 unpack 0 0;
#X text 325 29 on / off;
#X obj 254 268 inlet;
#X obj 254 300 spigot;
#X obj 232 439 route tripletDefinition;
#X text 247 409 filter out;
#X obj 158 301 circlewrap;
#X obj 359 134 switch~;
#X obj 359 114 tgl 15 0 empty empty empty 17 7 0 10 -262144 -1 -1 0
1;
#X obj 367 486 list prepend triplet;
#X obj 367 509 list trim;
#X obj 367 463 list prepend \$1;
#X msg 398 81 0;
#X obj 398 50 loadbang;
#X obj 158 232 xyz2aed;
#X obj 121 343 zirkvbap 0 0 0, f 19;
#X obj 367 532 s #zirk-out;
#X obj 51 537 clone -s 1 64 VBAPDispatcher \$1;
#X obj 28 252 r #zirk_vbap;
#X obj 28 277 route speakers;
#X connect 0 0 10 0;
#X connect 1 0 9 0;
#X connect 2 0 26 0;
#X connect 2 1 25 0;
#X connect 3 0 4 0;
#X connect 3 1 5 1;
#X connect 4 0 5 0;
#X connect 5 0 7 0;
#X connect 8 0 9 1;
#X connect 8 0 10 1;
#X connect 8 0 14 1;
#X connect 8 0 19 0;
#X connect 9 0 2 0;
#X connect 10 0 6 0;
#X connect 11 0 17 0;
#X connect 11 1 26 2;
#X connect 13 0 14 0;
#X connect 14 0 26 3;
#X connect 15 1 22 0;
#X connect 17 0 26 1;
#X connect 19 0 18 0;
#X connect 20 0 21 0;
#X connect 21 0 27 0;
#X connect 22 0 20 0;
#X connect 23 0 19 0;
#X connect 24 0 23 0;
#X connect 25 0 11 0;
#X connect 26 0 3 0;
#X connect 26 4 15 0;
#X connect 29 0 30 0;
#X connect 30 0 26 0;
