#N canvas 383 196 278 298 10;
#X obj 36 249 dac~ \$1;
#X obj 36 186 *~ 1;
#X obj 57 71 inlet;
#X obj 57 157 dbtorms;
#X obj 57 130 + 100;
#X obj 36 44 catch~ zirk_output\$1;
#N canvas 169 23 285 168 print 0;
#X obj 44 37 inlet;
#X obj 44 92 list trim;
#X obj 44 67 list prepend unknown message:;
#X obj 44 118 print zirk_input \$1;
#X connect 0 0 2 0;
#X connect 1 0 3 0;
#X connect 2 0 1 0;
#X restore 168 131 pd print error;
#X obj 57 103 route db gain float;
#X obj 36 216 hip~ 5;
#X connect 1 0 8 0;
#X connect 2 0 7 0;
#X connect 3 0 1 1;
#X connect 4 0 3 0;
#X connect 5 0 1 0;
#X connect 7 0 4 0;
#X connect 7 1 4 0;
#X connect 7 2 1 1;
#X connect 7 3 6 0;
#X connect 8 0 0 0;
