#N canvas 394 411 383 339 10;
#X obj 101 120 unpack 0 0;
#X obj 101 172 pack 0 25;
#X obj 173 172 pack 0 25;
#X obj 173 196 line 0 5;
#X obj 101 196 line 0 5;
#X obj 43 15 inlet~;
#X obj 258 146 switch~;
#X msg 284 118 0;
#X obj 284 93 loadbang;
#X obj 43 244 zirkhrtf~;
#X obj 101 69 spigot;
#N canvas 0 23 162 236 hrtf 0;
#X obj 48 88 * -1;
#X obj 48 142 + 360;
#X obj 48 115 moses 0;
#X obj 48 45 inlet;
#X obj 48 186 outlet;
#X connect 0 0 2 0;
#X connect 1 0 4 0;
#X connect 2 0 1 0;
#X connect 2 1 4 0;
#X connect 3 0 0 0;
#X restore 101 146 pd hrtf convert;
#X obj 258 41 route on speed;
#X obj 101 15 inlet;
#X obj 258 15 inlet;
#X msg 229 119 1;
#X obj 101 95 lib/xyztoaed;
#X obj 43 305 throw~ zirk_hrtf1;
#X obj 94 281 throw~ zirk_hrtf2;
#X msg 161 71 0 0 0;
#X obj 161 38 loadbang;
#X connect 0 0 11 0;
#X connect 0 1 2 0;
#X connect 1 0 4 0;
#X connect 2 0 3 0;
#X connect 3 0 9 2;
#X connect 4 0 9 1;
#X connect 5 0 9 0;
#X connect 7 0 6 0;
#X connect 8 0 7 0;
#X connect 8 0 15 0;
#X connect 9 0 17 0;
#X connect 9 1 18 0;
#X connect 10 0 16 0;
#X connect 11 0 1 0;
#X connect 12 0 10 1;
#X connect 12 0 6 0;
#X connect 12 1 1 1;
#X connect 12 1 2 1;
#X connect 13 0 10 0;
#X connect 14 0 12 0;
#X connect 15 0 4 0;
#X connect 15 0 3 0;
#X connect 16 0 0 0;
#X connect 19 0 16 0;
#X connect 20 0 19 0;
