#N canvas 383 196 192 177 10;
#X obj 55 132 dac~ \$1;
#X obj 55 20 catch~ out\$1;
#X obj 55 99 *~ 1;
#X obj 76 49 r #zirk_output;
#X obj 76 73 route gain;
#X connect 1 0 2 0;
#X connect 2 0 0 0;
#X connect 3 0 4 0;
#X connect 4 0 2 1;
