#N canvas 918 153 348 274 10;
#X obj 32 117 list length;
#X obj 32 148 - 1;
#X msg 129 117 \$1;
#X obj 129 148 sel 2 3;
#X msg 129 172 1;
#X msg 164 172 2;
#X obj 32 205 / 1;
#X obj 32 56 inlet;
#X obj 32 236 outlet;
#X obj 32 86 t a a;
#X text 28 13 2D: 2 az1 az2 az3 ...;
#X text 28 31 3D: 3 az1 el1 az2 el2 az3 el3 ...;
#X connect 0 0 1 0;
#X connect 1 0 6 0;
#X connect 2 0 3 0;
#X connect 3 0 4 0;
#X connect 3 1 5 0;
#X connect 4 0 6 1;
#X connect 5 0 6 1;
#X connect 6 0 8 0;
#X connect 7 0 9 0;
#X connect 9 0 0 0;
#X connect 9 1 2 0;
