#N canvas 747 143 300 272 10;
#X obj 29 25 inlet;
#X obj 29 60 t l l;
#X obj 29 223 outlet;
#X obj 29 100 zirk_layout_vbap;
#X obj 177 99 zirk_layout_hoa;
#X obj 29 157 list prepend vbap;
#X obj 29 194 list trim;
#X obj 177 157 list prepend hoa;
#X obj 122 129 outlet;
#X connect 0 0 1 0;
#X connect 1 0 3 0;
#X connect 1 1 4 0;
#X connect 3 0 5 0;
#X connect 3 1 8 0;
#X connect 4 0 7 0;
#X connect 5 0 6 0;
#X connect 6 0 2 0;
#X connect 7 0 6 0;
