#N canvas 411 206 611 545 10;
#X obj 33 38 inlet~;
#X obj 118 38 inlet;
#X obj 118 191 t b a, f 6;
#X obj 118 346 unpack 0 0;
#X obj 118 372 + 1;
#X obj 118 397 pack 0 0;
#X obj 391 36 inlet;
#X obj 118 161 spigot;
#X obj 33 466 *~;
#X obj 155 253 unpack 0 0;
#X obj 281 38 inlet;
#X obj 430 229 switch~;
#X msg 430 201 0;
#X obj 430 175 loadbang;
#X obj 430 145 s \$0-speed;
#X obj 148 440 r \$0-speed;
#X msg 148 466 all speed \$1;
#X obj 118 111 spigot;
#X msg 229 372 1;
#X obj 33 503 clone -s 1 \$1 zirk_dispatcher;
#X obj 118 317 zirkvbap 0 0 0, f 19;
#X obj 229 397 s \$0-layoutset;
#X obj 151 85 r \$0-layoutset;
#X obj 391 253 s \$0-on;
#X obj 151 137 r \$0-on;
#X obj 48 440 r \$0-on;
#X obj 380 395 outlet;
#X obj 229 346 route set tripletDefinition current selectedTriplet
;
#X text 250 318 support both custom [zirkvbap] & [vbap] output formats
;
#X obj 508 90 s \$0-vbap;
#X obj 52 252 r \$0-vbap;
#X obj 241 440 r \$0-count;
#X obj 469 115 s \$0-count;
#X msg 241 467 all max \$1;
#X obj 391 61 route on speed count;
#X obj 281 285 * 100;
#X obj 155 221 lib/xyztoaed;
#X obj 155 284 lib/circlewrap;
#X connect 0 0 8 0;
#X connect 1 0 17 0;
#X connect 2 0 20 0;
#X connect 2 1 36 0;
#X connect 3 0 4 0;
#X connect 3 1 5 1;
#X connect 4 0 5 0;
#X connect 5 0 19 1;
#X connect 6 0 34 0;
#X connect 7 0 2 0;
#X connect 8 0 19 0;
#X connect 9 0 37 0;
#X connect 9 1 20 2;
#X connect 10 0 35 0;
#X connect 12 0 11 0;
#X connect 13 0 12 0;
#X connect 15 0 16 0;
#X connect 16 0 19 2;
#X connect 17 0 7 0;
#X connect 18 0 21 0;
#X connect 20 0 3 0;
#X connect 20 4 27 0;
#X connect 22 0 17 1;
#X connect 24 0 7 1;
#X connect 25 0 8 1;
#X connect 27 0 18 0;
#X connect 27 1 18 0;
#X connect 27 2 26 0;
#X connect 27 3 26 0;
#X connect 30 0 20 0;
#X connect 31 0 33 0;
#X connect 33 0 19 2;
#X connect 34 0 23 0;
#X connect 34 0 11 0;
#X connect 34 1 14 0;
#X connect 34 2 32 0;
#X connect 34 3 29 0;
#X connect 35 0 20 3;
#X connect 36 0 9 0;
#X connect 37 0 20 1;
