#N canvas 158 162 440 263 10;
#X obj 25 193 *~;
#X obj 90 138 pack 0 25;
#X obj 301 135 switch~;
#X obj 369 43 loadbang;
#X obj 90 169 line~;
#X obj 266 74 >= \$1;
#X obj 231 16 inlet;
#X obj 90 16 inlet;
#X obj 25 16 inlet~;
#X obj 90 104 dbtorms;
#X obj 90 74 + 100;
#X obj 25 222 throw~ zirk_speaker\$1;
#X obj 90 43 route db gain float;
#X obj 231 43 route speed max on;
#X msg 369 74 0;
#X msg 337 73 1;
#X connect 0 0 11 0;
#X connect 1 0 4 0;
#X connect 3 0 14 0;
#X connect 3 0 15 0;
#X connect 4 0 0 1;
#X connect 5 0 2 0;
#X connect 6 0 13 0;
#X connect 7 0 12 0;
#X connect 8 0 0 0;
#X connect 9 0 1 0;
#X connect 10 0 9 0;
#X connect 12 0 10 0;
#X connect 12 1 10 0;
#X connect 12 2 1 0;
#X connect 13 0 1 1;
#X connect 13 1 5 0;
#X connect 13 2 2 0;
#X connect 14 0 2 0;
#X connect 15 0 4 0;
