#N canvas 501 25 599 476 10;
#X declare -path ./lib;
#X obj 86 365 *~ 1;
#X obj 120 365 *~ 1;
#X obj 371 255 + 100;
#X obj 86 35 inlet;
#N canvas 169 23 285 168 print 0;
#X obj 44 37 inlet;
#X obj 44 92 list trim;
#X obj 44 67 list prepend unknown message:;
#X obj 44 118 print zirk_sourcefile \$1;
#X connect 0 0 2 0;
#X connect 1 0 3 0;
#X connect 2 0 1 0;
#X restore 482 256 pd print error;
#X obj 371 317 t f;
#X obj 371 280 dbtorms;
#X obj 86 403 send~ zirk_sf\$1-1;
#X obj 120 429 send~ zirk_sf\$1-2;
#X obj 371 229 route db gain float;
#X obj 35 280 line~;
#X msg 35 255 \$1 5;
#X obj 120 319 *~;
#X obj 86 319 *~;
#X text 208 33 5 ms start/stop ramp;
#X obj 86 255 readsf~ 2, f 12;
#X obj 403 30 declare -path ./lib;
#X obj 137 192 switch~;
#X obj 86 68 sfcontrol;
#X obj 137 164 pipe 5;
#X obj 113 221 route float;
#X obj 86 135 t a a;
#X obj 197 192 spigot;
#X obj 197 221 outlet;
#X obj 231 135 route status done;
#X obj 251 192 spigot;
#X obj 137 135 t f f;
#X obj 137 107 route status done report;
#X obj 251 221 outlet;
#X connect 0 0 7 0;
#X connect 1 0 8 0;
#X connect 2 0 6 0;
#X connect 3 0 18 0;
#X connect 5 0 1 1;
#X connect 5 0 0 1;
#X connect 6 0 5 0;
#X connect 9 0 2 0;
#X connect 9 1 2 0;
#X connect 9 2 5 0;
#X connect 9 3 4 0;
#X connect 10 0 12 1;
#X connect 10 0 13 1;
#X connect 11 0 10 0;
#X connect 12 0 1 0;
#X connect 13 0 0 0;
#X connect 15 0 13 0;
#X connect 15 1 12 0;
#X connect 15 2 18 1;
#X connect 18 0 21 0;
#X connect 18 1 27 0;
#X connect 19 0 17 0;
#X connect 20 0 11 0;
#X connect 21 0 15 0;
#X connect 21 1 20 0;
#X connect 22 0 23 0;
#X connect 24 0 22 1;
#X connect 24 1 25 1;
#X connect 25 0 28 0;
#X connect 26 0 19 0;
#X connect 26 1 22 0;
#X connect 27 0 26 0;
#X connect 27 1 25 0;
#X connect 27 2 24 0;
#X connect 27 3 9 0;
