#N canvas 535 433 569 355 10;
#X obj 109 250 dac~;
#X obj 303 110 + 100;
#X obj 303 135 dbtorms;
#X obj 303 160 t f;
#X obj 303 45 inlet;
#X text 32 13 stereo HRTF receiver;
#X obj 173 45 catch~ zirk_hrtf2;
#X obj 33 45 catch~ zirk_hrtf1;
#X obj 173 206 *~ 1;
#X obj 33 206 *~ 1;
#N canvas 0 23 357 245 report 0;
#X obj 36 29 inlet~;
#X obj 212 204 switch~;
#X obj 260 149 loadbang;
#X msg 260 174 0;
#X obj 36 75 change;
#X obj 36 171 spigot;
#X obj 36 52 env~ 2048;
#X obj 36 203 outlet;
#X obj 36 101 - 100;
#X obj 212 102 route level;
#X obj 212 76 r \$0-report;
#X obj 106 29 inlet~;
#X obj 106 75 change;
#X obj 106 52 env~ 2048;
#X obj 106 101 - 100;
#X msg 36 128 1 \$1;
#X msg 106 128 2 \$1;
#X connect 0 0 6 0;
#X connect 2 0 3 0;
#X connect 3 0 1 0;
#X connect 4 0 8 0;
#X connect 5 0 7 0;
#X connect 6 0 4 0;
#X connect 8 0 15 0;
#X connect 9 0 1 0;
#X connect 9 0 5 1;
#X connect 10 0 9 0;
#X connect 11 0 13 0;
#X connect 12 0 14 0;
#X connect 13 0 12 0;
#X connect 14 0 16 0;
#X connect 15 0 5 0;
#X connect 16 0 5 0;
#X restore 86 280 pd report level;
#X obj 86 306 outlet;
#X obj 459 109 s \$0-report;
#N canvas 0 23 274 227 record 0;
#X obj 33 34 inlet~;
#X obj 84 35 inlet;
#X obj 33 190 writesf~;
#X obj 84 117 list trim;
#X connect 0 0 2 0;
#X connect 1 0 3 0;
#X connect 3 0 2 0;
#X restore 369 280 pd record;
#N canvas 0 23 274 227 record 0;
#X obj 33 34 inlet~;
#X obj 84 35 inlet;
#X obj 33 190 writesf~;
#X obj 84 117 list trim;
#X connect 0 0 2 0;
#X connect 1 0 3 0;
#X connect 3 0 2 0;
#X restore 438 280 pd record;
#X obj 303 78 route gain db float record report;
#X obj 420 135 route 1 2;
#X connect 1 0 2 0;
#X connect 2 0 3 0;
#X connect 3 0 8 1;
#X connect 3 0 9 1;
#X connect 4 0 15 0;
#X connect 6 0 8 0;
#X connect 7 0 9 0;
#X connect 8 0 0 1;
#X connect 8 0 10 1;
#X connect 8 0 14 0;
#X connect 9 0 0 0;
#X connect 9 0 10 0;
#X connect 9 0 13 0;
#X connect 10 0 11 0;
#X connect 15 0 1 0;
#X connect 15 1 1 0;
#X connect 15 2 3 0;
#X connect 15 3 16 0;
#X connect 15 4 12 0;
#X connect 16 0 13 1;
#X connect 16 1 14 1;
