#N canvas 470 187 575 359 10;
#X declare -path ./externals/vbap;
#X obj 61 39 inlet;
#X obj 61 297 outlet;
#X obj 61 107 list prepend ls-directions;
#X obj 61 132 list trim;
#X obj 61 187 define_loudspeakers 2 -45 45;
#X obj 61 157 t b a;
#X obj 259 247 zirkvbap;
#X obj 304 270 route set tripletDefinition;
#X text 318 247 output speaker triplets;
#X obj 304 295 outlet;
#X obj 358 107 zirk_layout_count;
#X obj 61 64 t l l;
#X text 143 166 stereo default;
#X msg 358 185 count \$1;
#X obj 297 42 declare -path ./externals/vbap;
#X connect 0 0 11 0;
#X connect 2 0 3 0;
#X connect 3 0 5 0;
#X connect 4 0 1 0;
#X connect 4 0 6 0;
#X connect 5 0 4 0;
#X connect 5 1 4 0;
#X connect 6 4 7 0;
#X connect 7 0 9 0;
#X connect 7 1 9 0;
#X connect 10 0 13 0;
#X connect 11 0 2 0;
#X connect 11 1 10 0;
#X connect 13 0 1 0;
