#N canvas 51 25 1363 658 10;
#X obj 86 93 list prepend open;
#X obj 86 118 list trim;
#X msg 276 93 0;
#X obj 86 143 t a b;
#X msg 113 167 1;
#X obj 212 218 switch~;
#X obj 86 365 *~ 1;
#X obj 119 365 *~ 1;
#X obj 152 365 *~ 1;
#X obj 186 365 *~ 1;
#X obj 219 365 *~ 1;
#X obj 252 365 *~ 1;
#X obj 286 365 *~ 1;
#X obj 319 365 *~ 1;
#X obj 1137 215 + 100;
#X obj 86 35 inlet;
#N canvas 0 23 426 230 switch 0;
#X obj 104 180 outlet;
#X obj 183 94 loadbang;
#X msg 183 120 0;
#X obj 131 120 pipe 5;
#X obj 104 94 t f f;
#X obj 104 69 moses 1;
#X obj 143 94 t f f;
#X text 216 119 make sure samples are output before switching off,
f 23;
#X obj 131 146 outlet;
#X obj 20 17 inlet no trigger;
#X obj 104 45 inlet send trigger;
#X connect 1 0 2 0;
#X connect 2 0 8 0;
#X connect 3 0 8 0;
#X connect 4 0 0 0;
#X connect 4 1 3 0;
#X connect 5 0 4 0;
#X connect 5 1 6 0;
#X connect 6 0 0 0;
#X connect 6 1 3 0;
#X connect 9 0 3 0;
#X connect 10 0 5 0;
#X restore 113 194 pd switch control;
#N canvas 169 23 285 168 print 0;
#X obj 44 37 inlet;
#X obj 44 92 list trim;
#X obj 44 67 list prepend unknown message:;
#X obj 44 118 print zirk_sourcefile \$1;
#X connect 0 0 2 0;
#X connect 1 0 3 0;
#X connect 2 0 1 0;
#X restore 1248 216 pd print error;
#X msg 212 93 1;
#X obj 1211 327 t f;
#X obj 1137 240 dbtorms;
#X obj 86 403 send~ zirk_sf\$1-1;
#X obj 119 429 send~ zirk_sf\$1-2;
#X obj 152 454 send~ zirk_sf\$1-3;
#X obj 186 480 send~ zirk_sf\$1-4;
#X obj 219 507 send~ zirk_sf\$1-5;
#X obj 252 533 send~ zirk_sf\$1-6;
#X obj 286 558 send~ zirk_sf\$1-7;
#X obj 319 584 send~ zirk_sf\$1-8;
#X obj 86 65 route open start stop, f 48;
#X obj 1137 189 route db gain float;
#X obj 35 280 line~;
#X msg 35 255 \$1 5;
#X obj 319 319 *~;
#X obj 286 319 *~;
#X obj 252 319 *~;
#X obj 219 319 *~;
#X obj 186 319 *~;
#X obj 152 319 *~;
#X obj 119 319 *~;
#X obj 86 319 *~;
#X obj 113 216 t f f;
#X text 208 33 5 ms start/stop ramp;
#X obj 86 255 readsf~ 32, f 164;
#X obj 367 366 *~ 1;
#X obj 400 366 *~ 1;
#X obj 433 366 *~ 1;
#X obj 467 366 *~ 1;
#X obj 500 366 *~ 1;
#X obj 533 366 *~ 1;
#X obj 567 366 *~ 1;
#X obj 600 366 *~ 1;
#X obj 600 320 *~;
#X obj 567 320 *~;
#X obj 533 320 *~;
#X obj 500 320 *~;
#X obj 467 320 *~;
#X obj 433 320 *~;
#X obj 400 320 *~;
#X obj 367 320 *~;
#X obj 646 365 *~ 1;
#X obj 679 365 *~ 1;
#X obj 712 365 *~ 1;
#X obj 746 365 *~ 1;
#X obj 779 365 *~ 1;
#X obj 812 365 *~ 1;
#X obj 846 365 *~ 1;
#X obj 879 365 *~ 1;
#X obj 879 319 *~;
#X obj 846 319 *~;
#X obj 812 319 *~;
#X obj 779 319 *~;
#X obj 746 319 *~;
#X obj 712 319 *~;
#X obj 679 319 *~;
#X obj 646 319 *~;
#X obj 926 365 *~ 1;
#X obj 959 365 *~ 1;
#X obj 992 365 *~ 1;
#X obj 1026 365 *~ 1;
#X obj 1059 365 *~ 1;
#X obj 1092 365 *~ 1;
#X obj 1126 365 *~ 1;
#X obj 1159 365 *~ 1;
#X obj 1159 319 *~;
#X obj 1126 319 *~;
#X obj 1092 319 *~;
#X obj 1059 319 *~;
#X obj 1026 319 *~;
#X obj 992 319 *~;
#X obj 959 319 *~;
#X obj 926 319 *~;
#X obj 367 404 send~ zirk_sf\$1-9;
#X obj 400 430 send~ zirk_sf\$1-10;
#X obj 433 455 send~ zirk_sf\$1-11;
#X obj 467 481 send~ zirk_sf\$1-12;
#X obj 500 508 send~ zirk_sf\$1-13;
#X obj 533 534 send~ zirk_sf\$1-14;
#X obj 567 559 send~ zirk_sf\$1-15;
#X obj 600 585 send~ zirk_sf\$1-16;
#X obj 646 403 send~ zirk_sf\$1-17;
#X obj 679 429 send~ zirk_sf\$1-18;
#X obj 712 454 send~ zirk_sf\$1-19;
#X obj 746 480 send~ zirk_sf\$1-20;
#X obj 779 507 send~ zirk_sf\$1-21;
#X obj 812 533 send~ zirk_sf\$1-22;
#X obj 846 558 send~ zirk_sf\$1-23;
#X obj 879 584 send~ zirk_sf\$1-24;
#X obj 926 403 send~ zirk_sf\$1-25;
#X obj 959 429 send~ zirk_sf\$1-26;
#X obj 992 454 send~ zirk_sf\$1-27;
#X obj 1026 480 send~ zirk_sf\$1-28;
#X obj 1059 507 send~ zirk_sf\$1-29;
#X obj 1092 533 send~ zirk_sf\$1-30;
#X obj 1126 558 send~ zirk_sf\$1-31;
#X obj 1159 584 send~ zirk_sf\$1-32;
#X connect 0 0 1 0;
#X connect 1 0 3 0;
#X connect 2 0 16 1;
#X connect 3 0 43 0;
#X connect 3 1 4 0;
#X connect 4 0 16 0;
#X connect 6 0 21 0;
#X connect 7 0 22 0;
#X connect 8 0 23 0;
#X connect 9 0 24 0;
#X connect 10 0 25 0;
#X connect 11 0 26 0;
#X connect 12 0 27 0;
#X connect 13 0 28 0;
#X connect 14 0 20 0;
#X connect 15 0 29 0;
#X connect 16 0 41 0;
#X connect 16 1 5 0;
#X connect 18 0 16 1;
#X connect 19 0 13 1;
#X connect 19 0 12 1;
#X connect 19 0 11 1;
#X connect 19 0 10 1;
#X connect 19 0 8 1;
#X connect 19 0 7 1;
#X connect 19 0 6 1;
#X connect 19 0 9 1;
#X connect 19 0 44 1;
#X connect 19 0 45 1;
#X connect 19 0 46 1;
#X connect 19 0 47 1;
#X connect 19 0 48 1;
#X connect 19 0 49 1;
#X connect 19 0 50 1;
#X connect 19 0 51 1;
#X connect 19 0 60 1;
#X connect 19 0 61 1;
#X connect 19 0 62 1;
#X connect 19 0 63 1;
#X connect 19 0 64 1;
#X connect 19 0 65 1;
#X connect 19 0 66 1;
#X connect 19 0 67 1;
#X connect 19 0 76 1;
#X connect 19 0 77 1;
#X connect 19 0 78 1;
#X connect 19 0 79 1;
#X connect 19 0 80 1;
#X connect 19 0 81 1;
#X connect 19 0 82 1;
#X connect 19 0 83 1;
#X connect 20 0 19 0;
#X connect 29 0 0 0;
#X connect 29 1 18 0;
#X connect 29 2 2 0;
#X connect 29 3 30 0;
#X connect 30 0 14 0;
#X connect 30 1 14 0;
#X connect 30 2 19 0;
#X connect 30 3 17 0;
#X connect 31 0 33 1;
#X connect 31 0 34 1;
#X connect 31 0 35 1;
#X connect 31 0 36 1;
#X connect 31 0 37 1;
#X connect 31 0 38 1;
#X connect 31 0 39 1;
#X connect 31 0 40 1;
#X connect 31 0 59 1;
#X connect 31 0 58 1;
#X connect 31 0 57 1;
#X connect 31 0 56 1;
#X connect 31 0 55 1;
#X connect 31 0 54 1;
#X connect 31 0 53 1;
#X connect 31 0 52 1;
#X connect 31 0 75 1;
#X connect 31 0 74 1;
#X connect 31 0 73 1;
#X connect 31 0 72 1;
#X connect 31 0 71 1;
#X connect 31 0 70 1;
#X connect 31 0 69 1;
#X connect 31 0 68 1;
#X connect 31 0 91 1;
#X connect 31 0 90 1;
#X connect 31 0 89 1;
#X connect 31 0 88 1;
#X connect 31 0 87 1;
#X connect 31 0 86 1;
#X connect 31 0 85 1;
#X connect 31 0 84 1;
#X connect 32 0 31 0;
#X connect 33 0 13 0;
#X connect 34 0 12 0;
#X connect 35 0 11 0;
#X connect 36 0 10 0;
#X connect 37 0 9 0;
#X connect 38 0 8 0;
#X connect 39 0 7 0;
#X connect 40 0 6 0;
#X connect 41 0 32 0;
#X connect 41 1 43 0;
#X connect 43 0 40 0;
#X connect 43 1 39 0;
#X connect 43 2 38 0;
#X connect 43 3 37 0;
#X connect 43 4 36 0;
#X connect 43 5 35 0;
#X connect 43 6 34 0;
#X connect 43 7 33 0;
#X connect 43 8 59 0;
#X connect 43 9 58 0;
#X connect 43 10 57 0;
#X connect 43 11 56 0;
#X connect 43 12 55 0;
#X connect 43 13 54 0;
#X connect 43 14 53 0;
#X connect 43 15 52 0;
#X connect 43 16 75 0;
#X connect 43 17 74 0;
#X connect 43 18 73 0;
#X connect 43 19 72 0;
#X connect 43 20 71 0;
#X connect 43 21 70 0;
#X connect 43 22 69 0;
#X connect 43 23 68 0;
#X connect 43 24 91 0;
#X connect 43 25 90 0;
#X connect 43 26 89 0;
#X connect 43 27 88 0;
#X connect 43 28 87 0;
#X connect 43 29 86 0;
#X connect 43 30 85 0;
#X connect 43 31 84 0;
#X connect 44 0 92 0;
#X connect 45 0 93 0;
#X connect 46 0 94 0;
#X connect 47 0 95 0;
#X connect 48 0 96 0;
#X connect 49 0 97 0;
#X connect 50 0 98 0;
#X connect 51 0 99 0;
#X connect 52 0 51 0;
#X connect 53 0 50 0;
#X connect 54 0 49 0;
#X connect 55 0 48 0;
#X connect 56 0 47 0;
#X connect 57 0 46 0;
#X connect 58 0 45 0;
#X connect 59 0 44 0;
#X connect 60 0 100 0;
#X connect 61 0 101 0;
#X connect 62 0 102 0;
#X connect 63 0 103 0;
#X connect 64 0 104 0;
#X connect 65 0 105 0;
#X connect 66 0 106 0;
#X connect 67 0 107 0;
#X connect 68 0 67 0;
#X connect 69 0 66 0;
#X connect 70 0 65 0;
#X connect 71 0 64 0;
#X connect 72 0 63 0;
#X connect 73 0 62 0;
#X connect 74 0 61 0;
#X connect 75 0 60 0;
#X connect 76 0 108 0;
#X connect 77 0 109 0;
#X connect 78 0 110 0;
#X connect 79 0 111 0;
#X connect 80 0 112 0;
#X connect 81 0 113 0;
#X connect 82 0 114 0;
#X connect 83 0 115 0;
#X connect 84 0 83 0;
#X connect 85 0 82 0;
#X connect 86 0 81 0;
#X connect 87 0 80 0;
#X connect 88 0 79 0;
#X connect 89 0 78 0;
#X connect 90 0 77 0;
#X connect 91 0 76 0;
