#N canvas 537 65 186 195 10;
#X obj 45 25 adc~ \$1;
#X obj 45 117 *~ 1;
#X obj 45 147 send~ in\$1;
#X obj 66 86 route gain;
#X obj 66 63 r #zirk_input;
#X connect 0 0 1 0;
#X connect 1 0 2 0;
#X connect 3 0 1 1;
#X connect 4 0 3 0;
