#N canvas 614 82 392 316 10;
#X msg 79 120 2 -45 45;
#X msg 151 120 2 -45 45 135 -135;
#X obj 79 206 print;
#X obj 142 206 print set;
#X obj 79 175 zirk_layout;
#X text 215 200 <- output vbap speaker pair/triplet sets, f 22;
#X text 20 24 convert a speaker layout list into the format needed
by the zirk_id vbp & hoa algoithms;
#X text 20 60 use this to precompute the speaker positions;
#X text 23 246 this is simply a wrapper for:;
#X obj 78 278 zirk_layout_vbap;
#X obj 199 278 zirk_layout_hoa;
#X msg 175 145 2 225 135 45 -45;
#X text 21 85 azimuth orientaton: 0 front \, rotate clockwise;
#X connect 0 0 4 0;
#X connect 1 0 4 0;
#X connect 4 0 2 0;
#X connect 4 1 3 0;
#X connect 11 0 4 0;
