#N canvas 712 116 504 207 10;
#X obj 320 107 env~;
#X floatatom 320 159 5 0 0 0 - - -;
#X floatatom 198 93 5 -100 12 0 dB - -;
#X floatatom 127 93 5 0 1 0 rms - -;
#X text 245 117 gain;
#X msg 198 117 db \$1;
#X text 189 72 -100 - +12;
#X text 127 71 0 - 1;
#X obj 320 132 - 100;
#X obj 52 159 zirk_source 1;
#X obj 320 79 receive~ zirk_source1;
#X text 40 45 creation args: id;
#X text 20 18 source audio channel;
#X text 317 44 receive using channel: zirk_source#, f 22;
#X obj 52 83 noise~;
#X obj 52 111 *~ 0.1;
#X connect 0 0 8 0;
#X connect 2 0 5 0;
#X connect 3 0 9 1;
#X connect 5 0 9 1;
#X connect 8 0 1 0;
#X connect 10 0 0 0;
#X connect 14 0 15 0;
#X connect 15 0 9 0;
