#N canvas 102 326 670 681 10;
#X obj 37 360 f;
#X obj 67 360 + 64;
#X obj 67 388 / 44100;
#X obj 196 452 +;
#X obj 181 512 f;
#X obj 67 421 t b f;
#X obj 100 453 + 1;
#X obj 67 453 f;
#X msg 25 486 0, f 4;
#X text 425 232 fps;
#X obj 382 264 / 64;
#X obj 382 308 i;
#X msg 109 220 64;
#X msg 145 220 0;
#X obj 109 255 t b f;
#X msg 109 280 0;
#X obj 37 219 bang~;
#X obj 403 144 r \$0-samplerate;
#X obj 106 359 r \$0-samplerate;
#X obj 298 144 t b f;
#X text 427 266 pd's blocksize;
#X obj 37 279 spigot;
#X obj 126 149 t f b b;
#X msg 275 611 time \$1;
#X msg 82 117 1;
#X obj 82 148 t f b;
#X msg 126 117 0;
#X obj 82 17 inlet;
#X obj 275 646 outlet;
#X obj 382 340 outlet;
#X obj 37 309 spigot 1;
#X obj 275 310 spigot 0;
#X obj 275 560 route float bang;
#X obj 320 264 == 1;
#X obj 255 264 == 0;
#X obj 382 196 f 44100;
#X obj 403 165 t b f;
#X obj 341 117 s \$0-samplerate;
#X msg 321 587 update;
#X text 117 487 elapsed;
#X text 226 453 offset;
#X text 34 196 clock;
#X obj 255 231 t f f;
#X text 415 311 blocks per refresh;
#X obj 385 82 print zirkonium_transport: unknown command;
#X obj 82 52 route float start stop time poll refresh samplerate;
#X obj 82 84 sel 1 0;
#X obj 325 196 moses 1;
#X obj 135 453 t b f;
#X obj 382 231 / 30;
#X obj 67 486 sel 25;
#X connect 0 0 1 0;
#X connect 1 0 0 1;
#X connect 1 0 2 0;
#X connect 2 0 5 0;
#X connect 3 0 4 1;
#X connect 4 0 32 0;
#X connect 5 0 7 0;
#X connect 5 1 3 0;
#X connect 6 0 7 1;
#X connect 7 0 6 0;
#X connect 7 0 50 0;
#X connect 8 0 7 1;
#X connect 10 0 11 0;
#X connect 11 0 29 0;
#X connect 11 0 48 0;
#X connect 12 0 14 0;
#X connect 13 0 14 0;
#X connect 14 0 15 0;
#X connect 14 1 1 1;
#X connect 15 0 0 1;
#X connect 16 0 21 0;
#X connect 17 0 36 0;
#X connect 18 0 2 1;
#X connect 19 0 35 0;
#X connect 19 1 47 0;
#X connect 21 0 30 0;
#X connect 21 0 31 0;
#X connect 22 0 21 1;
#X connect 22 1 13 0;
#X connect 23 0 28 0;
#X connect 24 0 25 0;
#X connect 25 0 21 1;
#X connect 25 1 12 0;
#X connect 26 0 22 0;
#X connect 27 0 45 0;
#X connect 30 0 0 0;
#X connect 31 0 32 0;
#X connect 32 0 23 0;
#X connect 32 1 38 0;
#X connect 33 0 31 1;
#X connect 34 0 30 1;
#X connect 35 0 49 0;
#X connect 36 0 35 0;
#X connect 36 1 35 1;
#X connect 38 0 28 0;
#X connect 42 0 34 0;
#X connect 42 1 33 0;
#X connect 45 0 46 0;
#X connect 45 1 24 0;
#X connect 45 2 26 0;
#X connect 45 3 3 1;
#X connect 45 4 42 0;
#X connect 45 5 19 0;
#X connect 45 6 37 0;
#X connect 45 7 44 0;
#X connect 46 0 24 0;
#X connect 46 1 26 0;
#X connect 47 1 49 1;
#X connect 48 0 8 0;
#X connect 48 1 50 1;
#X connect 49 0 10 0;
#X connect 50 0 8 0;
#X connect 50 0 4 0;
