#N canvas 535 433 596 397 10;
#X obj 303 110 + 100;
#X obj 303 135 dbtorms;
#X obj 303 160 t f;
#X obj 303 45 inlet;
#X text 32 13 stereo HRTF receiver;
#X obj 173 45 catch~ zirk_hrtf2;
#X obj 33 45 catch~ zirk_hrtf1;
#X obj 173 196 *~ 1;
#X obj 33 196 *~ 1;
#N canvas 0 23 357 245 report 0;
#X obj 36 29 inlet~;
#X obj 212 204 switch~;
#X obj 260 149 loadbang;
#X msg 260 174 0;
#X obj 36 75 change;
#X obj 36 171 spigot;
#X obj 36 52 env~ 2048;
#X obj 36 203 outlet;
#X obj 36 101 - 100;
#X obj 212 102 route level;
#X obj 212 76 r \$0-report;
#X obj 106 29 inlet~;
#X obj 106 75 change;
#X obj 106 52 env~ 2048;
#X obj 106 101 - 100;
#X msg 36 128 1 \$1;
#X msg 106 128 2 \$1;
#X connect 0 0 6 0;
#X connect 2 0 3 0;
#X connect 3 0 1 0;
#X connect 4 0 8 0;
#X connect 5 0 7 0;
#X connect 6 0 4 0;
#X connect 8 0 15 0;
#X connect 9 0 1 0;
#X connect 9 0 5 1;
#X connect 10 0 9 0;
#X connect 11 0 13 0;
#X connect 12 0 14 0;
#X connect 13 0 12 0;
#X connect 14 0 16 0;
#X connect 15 0 5 0;
#X connect 16 0 5 0;
#X restore 86 334 pd report level;
#X obj 86 360 outlet;
#X obj 500 109 s \$0-report;
#N canvas 0 23 274 227 record 0;
#X obj 33 34 inlet~;
#X obj 144 35 inlet;
#X obj 144 117 list trim;
#X obj 33 190 writesf~ 2;
#X obj 90 34 inlet~;
#X connect 0 0 3 0;
#X connect 1 0 2 0;
#X connect 2 0 3 0;
#X connect 4 0 3 1;
#X restore 305 250 pd record;
#X obj 101 250 hip~ 5;
#X obj 180 250 hip~ 5;
#X obj 101 306 dac~ 1;
#X obj 180 306 dac~ 2;
#X obj 461 216 route 1 2;
#X msg 461 250 set \$1;
#X msg 463 276 set \$1;
#X obj 303 78 route gain db float record output report;
#X connect 0 0 1 0;
#X connect 1 0 2 0;
#X connect 2 0 7 1;
#X connect 2 0 8 1;
#X connect 3 0 20 0;
#X connect 5 0 7 0;
#X connect 6 0 8 0;
#X connect 7 0 9 1;
#X connect 7 0 12 1;
#X connect 7 0 14 0;
#X connect 8 0 9 0;
#X connect 8 0 12 0;
#X connect 8 0 13 0;
#X connect 9 0 10 0;
#X connect 13 0 15 0;
#X connect 14 0 16 0;
#X connect 17 0 18 0;
#X connect 17 1 19 0;
#X connect 18 0 15 0;
#X connect 19 0 16 0;
#X connect 20 0 0 0;
#X connect 20 1 0 0;
#X connect 20 2 2 0;
#X connect 20 3 12 2;
#X connect 20 4 17 0;
#X connect 20 5 11 0;
