#N canvas 690 172 680 550 10;
#X obj 42 33 inlet~;
#X obj 127 33 inlet;
#X obj 295 33 inlet;
#X obj 449 33 inlet;
#X obj 295 113 spigot;
#X obj 127 113 spigot;
#X obj 42 483 *~;
#X obj 127 406 unpack 0 0;
#X obj 127 432 + 1;
#X obj 127 458 pack 0 0;
#X obj 127 369 zirkhoa;
#X obj 295 169 f 1;
#X obj 295 200 - 0;
#X obj 295 140 t b f;
#X obj 501 266 switch~;
#X obj 501 213 loadbang;
#X obj 160 231 r \$0-stereo;
#X obj 297 369 zirk_stereo;
#X obj 330 231 r \$0-stereo;
#N canvas 0 23 290 284 convert 0;
#X obj 75 49 inlet;
#X obj 75 136 / 180;
#X obj 75 82 unpack 0 0, f 12;
#X obj 144 135 / 180;
#X obj 144 161 * 3.14159;
#X obj 75 185 pack 0 0;
#X obj 75 161 * -3.14159;
#X obj 75 218 outlet;
#X obj 25 110 - 90;
#X obj 75 110 * -1;
#X connect 0 0 2 0;
#X connect 1 0 6 0;
#X connect 2 0 9 0;
#X connect 2 1 3 0;
#X connect 3 0 4 0;
#X connect 4 0 5 1;
#X connect 5 0 7 0;
#X connect 6 0 5 0;
#X connect 9 0 1 0;
#X restore 127 200 pd convert ranges;
#X obj 297 336 expr ($f1 + 1) / 2;
#X obj 127 301 spigot;
#X obj 166 336 spigot;
#X obj 297 263 spigot;
#X obj 213 460 r \$0-speed;
#X msg 213 484 all speed \$1;
#X obj 488 186 s \$0-speed;
#X msg 501 238 0;
#X obj 160 263 == 0;
#X obj 42 516 clone -s 1 \$1 zirk_dispatcher;
#X obj 449 266 s \$0-on;
#X obj 328 86 r \$0-on;
#X obj 160 86 r \$0-on;
#X obj 57 458 r \$0-on;
#X obj 608 113 s \$0-hoa;
#X obj 68 336 r \$0-hoa;
#X obj 528 161 s \$0-stereo;
#X obj 568 137 s \$0-count;
#X obj 449 86 route on speed stereo count;
#X msg 309 484 all max \$1;
#X obj 309 460 r \$0-count;
#X msg 297 301 \$1;
#X text 241 406 hoa requires a min of 3 speakers \, so fallback to
zirk_stereo when there are only 2;
#X obj 127 169 lib/xyztoaed;
#X connect 0 0 6 0;
#X connect 1 0 5 0;
#X connect 2 0 4 0;
#X connect 3 0 38 0;
#X connect 4 0 13 0;
#X connect 5 0 23 0;
#X connect 5 0 43 0;
#X connect 6 0 29 0;
#X connect 7 0 8 0;
#X connect 7 1 9 1;
#X connect 8 0 9 0;
#X connect 9 0 29 1;
#X connect 10 0 7 0;
#X connect 11 0 12 0;
#X connect 12 0 22 0;
#X connect 13 0 11 0;
#X connect 13 1 12 1;
#X connect 15 0 27 0;
#X connect 16 0 28 0;
#X connect 17 0 7 0;
#X connect 18 0 23 1;
#X connect 19 0 21 0;
#X connect 20 0 17 0;
#X connect 21 0 10 0;
#X connect 22 0 10 1;
#X connect 23 0 41 0;
#X connect 24 0 25 0;
#X connect 25 0 29 2;
#X connect 27 0 14 0;
#X connect 28 0 21 1;
#X connect 28 0 22 1;
#X connect 31 0 4 1;
#X connect 32 0 5 1;
#X connect 33 0 6 1;
#X connect 35 0 10 0;
#X connect 38 0 30 0;
#X connect 38 0 14 0;
#X connect 38 1 26 0;
#X connect 38 2 36 0;
#X connect 38 3 37 0;
#X connect 38 4 34 0;
#X connect 39 0 29 2;
#X connect 40 0 39 0;
#X connect 41 0 20 0;
#X connect 43 0 19 0;
