#N canvas 501 23 598 621 10;
#X obj 86 93 list prepend open;
#X obj 86 118 list trim;
#X obj 86 255 readsf~ 8, f 45;
#X msg 276 93 0;
#X obj 86 143 t a b;
#X msg 113 167 1;
#X obj 212 218 switch~;
#X obj 86 365 *~ 1;
#X obj 119 365 *~ 1;
#X obj 152 365 *~ 1;
#X obj 186 365 *~ 1;
#X obj 219 365 *~ 1;
#X obj 252 365 *~ 1;
#X obj 286 365 *~ 1;
#X obj 319 365 *~ 1;
#X obj 371 255 + 100;
#X obj 86 35 inlet;
#N canvas 0 23 426 230 switch 0;
#X obj 104 180 outlet;
#X obj 183 94 loadbang;
#X msg 183 120 0;
#X obj 131 120 pipe 5;
#X obj 104 94 t f f;
#X obj 104 69 moses 1;
#X obj 143 94 t f f;
#X text 216 119 make sure samples are output before switching off,
f 23;
#X obj 131 146 outlet;
#X obj 20 17 inlet no trigger;
#X obj 104 45 inlet send trigger;
#X connect 1 0 2 0;
#X connect 2 0 8 0;
#X connect 3 0 8 0;
#X connect 4 0 0 0;
#X connect 4 1 3 0;
#X connect 5 0 4 0;
#X connect 5 1 6 0;
#X connect 6 0 0 0;
#X connect 6 1 3 0;
#X connect 9 0 3 0;
#X connect 10 0 5 0;
#X restore 113 194 pd switch control;
#N canvas 169 23 285 168 print 0;
#X obj 44 37 inlet;
#X obj 44 92 list trim;
#X obj 44 67 list prepend unknown message:;
#X obj 44 118 print zirk_sourcefile \$1;
#X connect 0 0 2 0;
#X connect 1 0 3 0;
#X connect 2 0 1 0;
#X restore 482 256 pd print error;
#X msg 212 93 1;
#X obj 371 317 t f;
#X obj 371 280 dbtorms;
#X obj 86 403 send~ zirk_sf\$1-1;
#X obj 119 429 send~ zirk_sf\$1-2;
#X obj 152 454 send~ zirk_sf\$1-3;
#X obj 186 480 send~ zirk_sf\$1-4;
#X obj 219 507 send~ zirk_sf\$1-5;
#X obj 252 533 send~ zirk_sf\$1-6;
#X obj 286 558 send~ zirk_sf\$1-7;
#X obj 319 584 send~ zirk_sf\$1-8;
#X obj 86 65 route open start stop, f 48;
#X obj 371 229 route db gain float;
#X obj 35 280 line~;
#X msg 35 255 \$1 5;
#X obj 319 319 *~;
#X obj 286 319 *~;
#X obj 252 319 *~;
#X obj 219 319 *~;
#X obj 186 319 *~;
#X obj 152 319 *~;
#X obj 119 319 *~;
#X obj 86 319 *~;
#X obj 113 216 t f f;
#X text 208 33 5 ms start/stop ramp;
#X connect 0 0 1 0;
#X connect 1 0 4 0;
#X connect 2 0 41 0;
#X connect 2 1 40 0;
#X connect 2 2 39 0;
#X connect 2 3 38 0;
#X connect 2 4 37 0;
#X connect 2 5 36 0;
#X connect 2 6 35 0;
#X connect 2 7 34 0;
#X connect 3 0 17 1;
#X connect 4 0 2 0;
#X connect 4 1 5 0;
#X connect 5 0 17 0;
#X connect 7 0 22 0;
#X connect 8 0 23 0;
#X connect 9 0 24 0;
#X connect 10 0 25 0;
#X connect 11 0 26 0;
#X connect 12 0 27 0;
#X connect 13 0 28 0;
#X connect 14 0 29 0;
#X connect 15 0 21 0;
#X connect 16 0 30 0;
#X connect 17 0 42 0;
#X connect 17 1 6 0;
#X connect 19 0 17 1;
#X connect 20 0 14 1;
#X connect 20 0 13 1;
#X connect 20 0 12 1;
#X connect 20 0 11 1;
#X connect 20 0 9 1;
#X connect 20 0 8 1;
#X connect 20 0 7 1;
#X connect 20 0 10 1;
#X connect 21 0 20 0;
#X connect 30 0 0 0;
#X connect 30 1 19 0;
#X connect 30 2 3 0;
#X connect 30 3 31 0;
#X connect 31 0 15 0;
#X connect 31 1 15 0;
#X connect 31 2 20 0;
#X connect 31 3 18 0;
#X connect 32 0 34 1;
#X connect 32 0 35 1;
#X connect 32 0 36 1;
#X connect 32 0 37 1;
#X connect 32 0 38 1;
#X connect 32 0 39 1;
#X connect 32 0 40 1;
#X connect 32 0 41 1;
#X connect 33 0 32 0;
#X connect 34 0 14 0;
#X connect 35 0 13 0;
#X connect 36 0 12 0;
#X connect 37 0 11 0;
#X connect 38 0 10 0;
#X connect 39 0 9 0;
#X connect 40 0 8 0;
#X connect 41 0 7 0;
#X connect 42 0 33 0;
#X connect 42 1 2 0;
