#N canvas 537 65 333 238 10;
#X obj 39 153 *~ 1;
#X obj 103 40 inlet;
#X obj 103 126 dbtorms;
#X obj 103 99 + 100;
#X obj 103 72 route db gain float;
#N canvas 169 23 285 168 print 0;
#X obj 44 37 inlet;
#X obj 44 92 list trim;
#X obj 44 67 list prepend unknown message:;
#X obj 44 118 print zirk_source \$1;
#X connect 0 0 2 0;
#X connect 1 0 3 0;
#X connect 2 0 1 0;
#X restore 214 99 pd print error;
#X obj 39 39 inlet~;
#X obj 39 184 send~ zirk_source\$1;
#X connect 0 0 7 0;
#X connect 1 0 4 0;
#X connect 2 0 0 1;
#X connect 3 0 2 0;
#X connect 4 0 3 0;
#X connect 4 1 3 0;
#X connect 4 2 0 1;
#X connect 4 3 5 0;
#X connect 6 0 0 0;
