#N canvas 51 25 1841 735 10;
#X declare -path ./lib;
#X obj 86 465 *~ 1;
#X obj 119 465 *~ 1;
#X obj 152 465 *~ 1;
#X obj 186 465 *~ 1;
#X obj 219 465 *~ 1;
#X obj 252 465 *~ 1;
#X obj 286 465 *~ 1;
#X obj 319 465 *~ 1;
#X obj 377 161 + 100;
#X obj 86 35 inlet;
#N canvas 169 23 285 168 print 0;
#X obj 44 37 inlet;
#X obj 44 92 list trim;
#X obj 44 67 list prepend unknown message:;
#X obj 44 118 print zirk_sourcefile \$1;
#X connect 0 0 2 0;
#X connect 1 0 3 0;
#X connect 2 0 1 0;
#X restore 488 162 pd print error;
#X obj 1203 436 t f;
#X obj 377 186 dbtorms;
#X obj 86 503 send~ zirk_sf\$1-1;
#X obj 119 529 send~ zirk_sf\$1-2;
#X obj 152 554 send~ zirk_sf\$1-3;
#X obj 186 580 send~ zirk_sf\$1-4;
#X obj 219 607 send~ zirk_sf\$1-5;
#X obj 252 633 send~ zirk_sf\$1-6;
#X obj 286 658 send~ zirk_sf\$1-7;
#X obj 319 684 send~ zirk_sf\$1-8;
#X obj 377 135 route db gain float;
#X obj 1203 360 line~;
#X msg 113 246 \$1 5;
#X obj 319 419 *~;
#X obj 286 419 *~;
#X obj 252 419 *~;
#X obj 219 419 *~;
#X obj 186 419 *~;
#X obj 152 419 *~;
#X obj 119 419 *~;
#X obj 86 419 *~;
#X text 208 33 5 ms start/stop ramp;
#X obj 367 466 *~ 1;
#X obj 400 466 *~ 1;
#X obj 433 466 *~ 1;
#X obj 467 466 *~ 1;
#X obj 500 466 *~ 1;
#X obj 533 466 *~ 1;
#X obj 567 466 *~ 1;
#X obj 600 466 *~ 1;
#X obj 600 420 *~;
#X obj 567 420 *~;
#X obj 533 420 *~;
#X obj 500 420 *~;
#X obj 467 420 *~;
#X obj 433 420 *~;
#X obj 400 420 *~;
#X obj 367 420 *~;
#X obj 646 465 *~ 1;
#X obj 679 465 *~ 1;
#X obj 712 465 *~ 1;
#X obj 746 465 *~ 1;
#X obj 779 465 *~ 1;
#X obj 812 465 *~ 1;
#X obj 846 465 *~ 1;
#X obj 879 465 *~ 1;
#X obj 879 419 *~;
#X obj 846 419 *~;
#X obj 812 419 *~;
#X obj 779 419 *~;
#X obj 746 419 *~;
#X obj 712 419 *~;
#X obj 679 419 *~;
#X obj 646 419 *~;
#X obj 926 465 *~ 1;
#X obj 959 465 *~ 1;
#X obj 992 465 *~ 1;
#X obj 1026 465 *~ 1;
#X obj 1059 465 *~ 1;
#X obj 1092 465 *~ 1;
#X obj 1126 465 *~ 1;
#X obj 1159 465 *~ 1;
#X obj 1159 419 *~;
#X obj 1126 419 *~;
#X obj 1092 419 *~;
#X obj 1059 419 *~;
#X obj 1026 419 *~;
#X obj 992 419 *~;
#X obj 959 419 *~;
#X obj 926 419 *~;
#X obj 367 504 send~ zirk_sf\$1-9;
#X obj 400 530 send~ zirk_sf\$1-10;
#X obj 433 555 send~ zirk_sf\$1-11;
#X obj 467 581 send~ zirk_sf\$1-12;
#X obj 500 608 send~ zirk_sf\$1-13;
#X obj 533 634 send~ zirk_sf\$1-14;
#X obj 567 659 send~ zirk_sf\$1-15;
#X obj 600 685 send~ zirk_sf\$1-16;
#X obj 646 503 send~ zirk_sf\$1-17;
#X obj 679 529 send~ zirk_sf\$1-18;
#X obj 712 554 send~ zirk_sf\$1-19;
#X obj 746 580 send~ zirk_sf\$1-20;
#X obj 779 607 send~ zirk_sf\$1-21;
#X obj 812 633 send~ zirk_sf\$1-22;
#X obj 846 658 send~ zirk_sf\$1-23;
#X obj 879 684 send~ zirk_sf\$1-24;
#X obj 926 503 send~ zirk_sf\$1-25;
#X obj 959 529 send~ zirk_sf\$1-26;
#X obj 992 554 send~ zirk_sf\$1-27;
#X obj 1026 580 send~ zirk_sf\$1-28;
#X obj 1059 607 send~ zirk_sf\$1-29;
#X obj 1092 633 send~ zirk_sf\$1-30;
#X obj 1126 658 send~ zirk_sf\$1-31;
#X obj 1159 684 send~ zirk_sf\$1-32;
#X obj 403 30 declare -path ./lib;
#X obj 137 192 switch~;
#X obj 86 68 sfcontrol;
#X obj 137 164 pipe 5;
#X obj 113 221 route float;
#X obj 86 135 t a a;
#X obj 197 192 spigot;
#X obj 197 221 outlet;
#X obj 231 135 route status done;
#X obj 251 192 spigot;
#X obj 137 135 t f f;
#X obj 137 107 route status done report;
#X obj 251 221 outlet;
#X obj 1276 465 *~ 1;
#X obj 1309 465 *~ 1;
#X obj 1342 465 *~ 1;
#X obj 1376 465 *~ 1;
#X obj 1409 465 *~ 1;
#X obj 1442 465 *~ 1;
#X obj 1476 465 *~ 1;
#X obj 1509 465 *~ 1;
#X obj 1509 419 *~;
#X obj 1476 419 *~;
#X obj 1442 419 *~;
#X obj 1409 419 *~;
#X obj 1376 419 *~;
#X obj 1342 419 *~;
#X obj 1309 419 *~;
#X obj 1276 419 *~;
#X obj 1557 466 *~ 1;
#X obj 1590 466 *~ 1;
#X obj 1623 466 *~ 1;
#X obj 1657 466 *~ 1;
#X obj 1690 466 *~ 1;
#X obj 1723 466 *~ 1;
#X obj 1757 466 *~ 1;
#X obj 1790 466 *~ 1;
#X obj 1790 420 *~;
#X obj 1757 420 *~;
#X obj 1723 420 *~;
#X obj 1690 420 *~;
#X obj 1657 420 *~;
#X obj 1623 420 *~;
#X obj 1590 420 *~;
#X obj 1557 420 *~;
#X obj 1836 465 *~ 1;
#X obj 1869 465 *~ 1;
#X obj 1902 465 *~ 1;
#X obj 1936 465 *~ 1;
#X obj 1969 465 *~ 1;
#X obj 2002 465 *~ 1;
#X obj 2036 465 *~ 1;
#X obj 2069 465 *~ 1;
#X obj 2069 419 *~;
#X obj 2036 419 *~;
#X obj 2002 419 *~;
#X obj 1969 419 *~;
#X obj 1936 419 *~;
#X obj 1902 419 *~;
#X obj 1869 419 *~;
#X obj 1836 419 *~;
#X obj 2116 465 *~ 1;
#X obj 2149 465 *~ 1;
#X obj 2182 465 *~ 1;
#X obj 2216 465 *~ 1;
#X obj 2249 465 *~ 1;
#X obj 2282 465 *~ 1;
#X obj 2316 465 *~ 1;
#X obj 2349 465 *~ 1;
#X obj 2349 419 *~;
#X obj 2316 419 *~;
#X obj 2282 419 *~;
#X obj 2249 419 *~;
#X obj 2216 419 *~;
#X obj 2182 419 *~;
#X obj 2149 419 *~;
#X obj 2116 419 *~;
#X obj 86 295 readsf~ 64, f 380;
#X obj 113 272 s \$0-ramp;
#X obj 1203 332 r \$0-ramp;
#X obj 1203 408 r \$0-gain;
#X obj 451 221 s \$0-gain;
#X obj 1276 503 send~ zirk_sf\$1-33;
#X obj 1309 529 send~ zirk_sf\$1-34;
#X obj 1342 554 send~ zirk_sf\$1-35;
#X obj 1376 580 send~ zirk_sf\$1-36;
#X obj 1409 607 send~ zirk_sf\$1-37;
#X obj 1442 633 send~ zirk_sf\$1-38;
#X obj 1476 658 send~ zirk_sf\$1-39;
#X obj 1509 684 send~ zirk_sf\$1-40;
#X obj 1557 504 send~ zirk_sf\$1-41;
#X obj 1590 530 send~ zirk_sf\$1-42;
#X obj 1623 555 send~ zirk_sf\$1-43;
#X obj 1657 581 send~ zirk_sf\$1-44;
#X obj 1690 608 send~ zirk_sf\$1-45;
#X obj 1723 634 send~ zirk_sf\$1-46;
#X obj 1757 659 send~ zirk_sf\$1-47;
#X obj 1790 685 send~ zirk_sf\$1-48;
#X obj 1836 503 send~ zirk_sf\$1-49;
#X obj 1869 529 send~ zirk_sf\$1-50;
#X obj 1902 554 send~ zirk_sf\$1-51;
#X obj 1936 580 send~ zirk_sf\$1-52;
#X obj 1969 607 send~ zirk_sf\$1-53;
#X obj 2002 634 send~ zirk_sf\$1-54;
#X obj 2036 658 send~ zirk_sf\$1-55;
#X obj 2069 684 send~ zirk_sf\$1-56;
#X obj 2116 503 send~ zirk_sf\$1-57;
#X obj 2149 529 send~ zirk_sf\$1-58;
#X obj 2182 554 send~ zirk_sf\$1-59;
#X obj 2216 580 send~ zirk_sf\$1-60;
#X obj 2249 607 send~ zirk_sf\$1-61;
#X obj 2282 633 send~ zirk_sf\$1-62;
#X obj 2316 658 send~ zirk_sf\$1-63;
#X obj 2349 684 send~ zirk_sf\$1-64;
#X connect 0 0 13 0;
#X connect 1 0 14 0;
#X connect 2 0 15 0;
#X connect 3 0 16 0;
#X connect 4 0 17 0;
#X connect 5 0 18 0;
#X connect 6 0 19 0;
#X connect 7 0 20 0;
#X connect 8 0 12 0;
#X connect 9 0 107 0;
#X connect 11 0 7 1;
#X connect 11 0 6 1;
#X connect 11 0 5 1;
#X connect 11 0 4 1;
#X connect 11 0 2 1;
#X connect 11 0 1 1;
#X connect 11 0 0 1;
#X connect 11 0 3 1;
#X connect 11 0 33 1;
#X connect 11 0 34 1;
#X connect 11 0 35 1;
#X connect 11 0 36 1;
#X connect 11 0 37 1;
#X connect 11 0 38 1;
#X connect 11 0 39 1;
#X connect 11 0 40 1;
#X connect 11 0 49 1;
#X connect 11 0 50 1;
#X connect 11 0 51 1;
#X connect 11 0 52 1;
#X connect 11 0 53 1;
#X connect 11 0 54 1;
#X connect 11 0 55 1;
#X connect 11 0 56 1;
#X connect 11 0 65 1;
#X connect 11 0 66 1;
#X connect 11 0 67 1;
#X connect 11 0 68 1;
#X connect 11 0 69 1;
#X connect 11 0 70 1;
#X connect 11 0 71 1;
#X connect 11 0 72 1;
#X connect 11 0 118 1;
#X connect 11 0 119 1;
#X connect 11 0 120 1;
#X connect 11 0 121 1;
#X connect 11 0 122 1;
#X connect 11 0 123 1;
#X connect 11 0 124 1;
#X connect 11 0 125 1;
#X connect 11 0 134 1;
#X connect 11 0 135 1;
#X connect 11 0 136 1;
#X connect 11 0 137 1;
#X connect 11 0 138 1;
#X connect 11 0 139 1;
#X connect 11 0 140 1;
#X connect 11 0 141 1;
#X connect 11 0 150 1;
#X connect 11 0 151 1;
#X connect 11 0 152 1;
#X connect 11 0 153 1;
#X connect 11 0 154 1;
#X connect 11 0 155 1;
#X connect 11 0 156 1;
#X connect 11 0 157 1;
#X connect 11 0 166 1;
#X connect 11 0 167 1;
#X connect 11 0 168 1;
#X connect 11 0 169 1;
#X connect 11 0 170 1;
#X connect 11 0 171 1;
#X connect 11 0 172 1;
#X connect 11 0 173 1;
#X connect 12 0 186 0;
#X connect 21 0 8 0;
#X connect 21 1 8 0;
#X connect 21 2 186 0;
#X connect 21 3 10 0;
#X connect 22 0 24 1;
#X connect 22 0 25 1;
#X connect 22 0 26 1;
#X connect 22 0 27 1;
#X connect 22 0 28 1;
#X connect 22 0 29 1;
#X connect 22 0 30 1;
#X connect 22 0 31 1;
#X connect 22 0 48 1;
#X connect 22 0 47 1;
#X connect 22 0 46 1;
#X connect 22 0 45 1;
#X connect 22 0 44 1;
#X connect 22 0 43 1;
#X connect 22 0 42 1;
#X connect 22 0 41 1;
#X connect 22 0 64 1;
#X connect 22 0 63 1;
#X connect 22 0 62 1;
#X connect 22 0 61 1;
#X connect 22 0 60 1;
#X connect 22 0 59 1;
#X connect 22 0 58 1;
#X connect 22 0 57 1;
#X connect 22 0 80 1;
#X connect 22 0 79 1;
#X connect 22 0 78 1;
#X connect 22 0 77 1;
#X connect 22 0 76 1;
#X connect 22 0 75 1;
#X connect 22 0 74 1;
#X connect 22 0 73 1;
#X connect 22 0 133 1;
#X connect 22 0 132 1;
#X connect 22 0 131 1;
#X connect 22 0 130 1;
#X connect 22 0 129 1;
#X connect 22 0 128 1;
#X connect 22 0 127 1;
#X connect 22 0 126 1;
#X connect 22 0 149 1;
#X connect 22 0 148 1;
#X connect 22 0 147 1;
#X connect 22 0 146 1;
#X connect 22 0 145 1;
#X connect 22 0 144 1;
#X connect 22 0 143 1;
#X connect 22 0 142 1;
#X connect 22 0 165 1;
#X connect 22 0 164 1;
#X connect 22 0 163 1;
#X connect 22 0 162 1;
#X connect 22 0 161 1;
#X connect 22 0 160 1;
#X connect 22 0 159 1;
#X connect 22 0 158 1;
#X connect 22 0 181 1;
#X connect 22 0 180 1;
#X connect 22 0 179 1;
#X connect 22 0 178 1;
#X connect 22 0 177 1;
#X connect 22 0 176 1;
#X connect 22 0 175 1;
#X connect 22 0 174 1;
#X connect 23 0 183 0;
#X connect 24 0 7 0;
#X connect 25 0 6 0;
#X connect 26 0 5 0;
#X connect 27 0 4 0;
#X connect 28 0 3 0;
#X connect 29 0 2 0;
#X connect 30 0 1 0;
#X connect 31 0 0 0;
#X connect 33 0 81 0;
#X connect 34 0 82 0;
#X connect 35 0 83 0;
#X connect 36 0 84 0;
#X connect 37 0 85 0;
#X connect 38 0 86 0;
#X connect 39 0 87 0;
#X connect 40 0 88 0;
#X connect 41 0 40 0;
#X connect 42 0 39 0;
#X connect 43 0 38 0;
#X connect 44 0 37 0;
#X connect 45 0 36 0;
#X connect 46 0 35 0;
#X connect 47 0 34 0;
#X connect 48 0 33 0;
#X connect 49 0 89 0;
#X connect 50 0 90 0;
#X connect 51 0 91 0;
#X connect 52 0 92 0;
#X connect 53 0 93 0;
#X connect 54 0 94 0;
#X connect 55 0 95 0;
#X connect 56 0 96 0;
#X connect 57 0 56 0;
#X connect 58 0 55 0;
#X connect 59 0 54 0;
#X connect 60 0 53 0;
#X connect 61 0 52 0;
#X connect 62 0 51 0;
#X connect 63 0 50 0;
#X connect 64 0 49 0;
#X connect 65 0 97 0;
#X connect 66 0 98 0;
#X connect 67 0 99 0;
#X connect 68 0 100 0;
#X connect 69 0 101 0;
#X connect 70 0 102 0;
#X connect 71 0 103 0;
#X connect 72 0 104 0;
#X connect 73 0 72 0;
#X connect 74 0 71 0;
#X connect 75 0 70 0;
#X connect 76 0 69 0;
#X connect 77 0 68 0;
#X connect 78 0 67 0;
#X connect 79 0 66 0;
#X connect 80 0 65 0;
#X connect 107 0 110 0;
#X connect 107 1 116 0;
#X connect 108 0 106 0;
#X connect 109 0 23 0;
#X connect 110 0 182 0;
#X connect 110 1 109 0;
#X connect 111 0 112 0;
#X connect 113 0 111 1;
#X connect 113 1 114 1;
#X connect 114 0 117 0;
#X connect 115 0 108 0;
#X connect 115 1 111 0;
#X connect 116 0 115 0;
#X connect 116 1 114 0;
#X connect 116 2 113 0;
#X connect 116 3 21 0;
#X connect 118 0 187 0;
#X connect 119 0 188 0;
#X connect 120 0 189 0;
#X connect 121 0 190 0;
#X connect 122 0 191 0;
#X connect 123 0 192 0;
#X connect 124 0 193 0;
#X connect 125 0 194 0;
#X connect 126 0 125 0;
#X connect 127 0 124 0;
#X connect 128 0 123 0;
#X connect 129 0 122 0;
#X connect 130 0 121 0;
#X connect 131 0 120 0;
#X connect 132 0 119 0;
#X connect 133 0 118 0;
#X connect 134 0 195 0;
#X connect 135 0 196 0;
#X connect 136 0 197 0;
#X connect 137 0 198 0;
#X connect 138 0 199 0;
#X connect 139 0 200 0;
#X connect 140 0 201 0;
#X connect 141 0 202 0;
#X connect 142 0 141 0;
#X connect 143 0 140 0;
#X connect 144 0 139 0;
#X connect 145 0 138 0;
#X connect 146 0 137 0;
#X connect 147 0 136 0;
#X connect 148 0 135 0;
#X connect 149 0 134 0;
#X connect 150 0 203 0;
#X connect 151 0 204 0;
#X connect 152 0 205 0;
#X connect 153 0 206 0;
#X connect 154 0 207 0;
#X connect 155 0 208 0;
#X connect 156 0 209 0;
#X connect 157 0 210 0;
#X connect 158 0 157 0;
#X connect 159 0 156 0;
#X connect 160 0 155 0;
#X connect 161 0 154 0;
#X connect 162 0 153 0;
#X connect 163 0 152 0;
#X connect 164 0 151 0;
#X connect 165 0 150 0;
#X connect 166 0 211 0;
#X connect 167 0 212 0;
#X connect 168 0 213 0;
#X connect 169 0 214 0;
#X connect 170 0 215 0;
#X connect 171 0 216 0;
#X connect 172 0 217 0;
#X connect 173 0 218 0;
#X connect 174 0 173 0;
#X connect 175 0 172 0;
#X connect 176 0 171 0;
#X connect 177 0 170 0;
#X connect 178 0 169 0;
#X connect 179 0 168 0;
#X connect 180 0 167 0;
#X connect 181 0 166 0;
#X connect 182 0 31 0;
#X connect 182 1 30 0;
#X connect 182 2 29 0;
#X connect 182 3 28 0;
#X connect 182 4 27 0;
#X connect 182 5 26 0;
#X connect 182 6 25 0;
#X connect 182 7 24 0;
#X connect 182 8 48 0;
#X connect 182 9 47 0;
#X connect 182 10 46 0;
#X connect 182 11 45 0;
#X connect 182 12 44 0;
#X connect 182 13 43 0;
#X connect 182 14 42 0;
#X connect 182 15 41 0;
#X connect 182 16 64 0;
#X connect 182 17 63 0;
#X connect 182 18 62 0;
#X connect 182 19 61 0;
#X connect 182 20 60 0;
#X connect 182 21 59 0;
#X connect 182 22 58 0;
#X connect 182 23 57 0;
#X connect 182 24 80 0;
#X connect 182 25 79 0;
#X connect 182 26 78 0;
#X connect 182 27 77 0;
#X connect 182 28 76 0;
#X connect 182 29 75 0;
#X connect 182 30 74 0;
#X connect 182 31 73 0;
#X connect 182 32 133 0;
#X connect 182 33 132 0;
#X connect 182 34 131 0;
#X connect 182 35 130 0;
#X connect 182 36 129 0;
#X connect 182 37 128 0;
#X connect 182 38 127 0;
#X connect 182 39 126 0;
#X connect 182 40 149 0;
#X connect 182 41 148 0;
#X connect 182 42 147 0;
#X connect 182 43 146 0;
#X connect 182 44 145 0;
#X connect 182 45 144 0;
#X connect 182 46 143 0;
#X connect 182 47 142 0;
#X connect 182 48 165 0;
#X connect 182 49 164 0;
#X connect 182 50 163 0;
#X connect 182 51 162 0;
#X connect 182 52 161 0;
#X connect 182 53 160 0;
#X connect 182 54 159 0;
#X connect 182 55 158 0;
#X connect 182 56 181 0;
#X connect 182 57 180 0;
#X connect 182 58 179 0;
#X connect 182 59 178 0;
#X connect 182 60 177 0;
#X connect 182 61 176 0;
#X connect 182 62 175 0;
#X connect 182 63 174 0;
#X connect 182 64 107 1;
#X connect 184 0 22 0;
#X connect 185 0 11 0;
