#N canvas 729 83 598 621 10;
#X declare -path ./lib;
#X obj 86 255 readsf~ 8, f 45;
#X obj 137 192 switch~;
#X obj 86 365 *~ 1;
#X obj 119 365 *~ 1;
#X obj 152 365 *~ 1;
#X obj 186 365 *~ 1;
#X obj 219 365 *~ 1;
#X obj 252 365 *~ 1;
#X obj 286 365 *~ 1;
#X obj 319 365 *~ 1;
#X obj 371 255 + 100;
#X obj 86 35 inlet;
#N canvas 169 23 285 168 print 0;
#X obj 44 37 inlet;
#X obj 44 92 list trim;
#X obj 44 67 list prepend unknown message:;
#X obj 44 118 print zirk_sourcefile \$1;
#X connect 0 0 2 0;
#X connect 1 0 3 0;
#X connect 2 0 1 0;
#X restore 482 256 pd print error;
#X obj 371 317 t f;
#X obj 371 280 dbtorms;
#X obj 86 403 send~ zirk_sf\$1-1;
#X obj 119 429 send~ zirk_sf\$1-2;
#X obj 152 454 send~ zirk_sf\$1-3;
#X obj 186 480 send~ zirk_sf\$1-4;
#X obj 219 507 send~ zirk_sf\$1-5;
#X obj 252 533 send~ zirk_sf\$1-6;
#X obj 286 558 send~ zirk_sf\$1-7;
#X obj 319 584 send~ zirk_sf\$1-8;
#X obj 371 229 route db gain float;
#X obj 35 280 line~;
#X msg 35 255 \$1 5;
#X obj 319 319 *~;
#X obj 286 319 *~;
#X obj 252 319 *~;
#X obj 219 319 *~;
#X obj 186 319 *~;
#X obj 152 319 *~;
#X obj 119 319 *~;
#X obj 86 319 *~;
#X text 208 33 5 ms start/stop ramp;
#X obj 403 30 declare -path ./lib;
#X obj 86 68 sfcontrol;
#X obj 137 164 pipe 5;
#X obj 113 221 route float;
#X obj 86 135 t a a;
#X obj 197 192 spigot;
#X obj 197 221 outlet;
#X obj 232 135 route status done;
#X obj 251 192 spigot;
#X obj 137 135 t f f;
#X obj 137 107 route status done report;
#X obj 251 221 outlet;
#X connect 0 0 33 0;
#X connect 0 1 32 0;
#X connect 0 2 31 0;
#X connect 0 3 30 0;
#X connect 0 4 29 0;
#X connect 0 5 28 0;
#X connect 0 6 27 0;
#X connect 0 7 26 0;
#X connect 0 8 36 1;
#X connect 2 0 15 0;
#X connect 3 0 16 0;
#X connect 4 0 17 0;
#X connect 5 0 18 0;
#X connect 6 0 19 0;
#X connect 7 0 20 0;
#X connect 8 0 21 0;
#X connect 9 0 22 0;
#X connect 10 0 14 0;
#X connect 11 0 36 0;
#X connect 13 0 9 1;
#X connect 13 0 8 1;
#X connect 13 0 7 1;
#X connect 13 0 6 1;
#X connect 13 0 4 1;
#X connect 13 0 3 1;
#X connect 13 0 2 1;
#X connect 13 0 5 1;
#X connect 14 0 13 0;
#X connect 23 0 10 0;
#X connect 23 1 10 0;
#X connect 23 2 13 0;
#X connect 23 3 12 0;
#X connect 24 0 26 1;
#X connect 24 0 27 1;
#X connect 24 0 28 1;
#X connect 24 0 29 1;
#X connect 24 0 30 1;
#X connect 24 0 31 1;
#X connect 24 0 32 1;
#X connect 24 0 33 1;
#X connect 25 0 24 0;
#X connect 26 0 9 0;
#X connect 27 0 8 0;
#X connect 28 0 7 0;
#X connect 29 0 6 0;
#X connect 30 0 5 0;
#X connect 31 0 4 0;
#X connect 32 0 3 0;
#X connect 33 0 2 0;
#X connect 36 0 39 0;
#X connect 36 1 45 0;
#X connect 37 0 1 0;
#X connect 38 0 25 0;
#X connect 39 0 0 0;
#X connect 39 1 38 0;
#X connect 40 0 41 0;
#X connect 42 0 40 1;
#X connect 42 1 43 1;
#X connect 43 0 46 0;
#X connect 44 0 37 0;
#X connect 44 1 40 0;
#X connect 45 0 44 0;
#X connect 45 1 43 0;
#X connect 45 2 42 0;
#X connect 45 3 23 0;
