#N canvas 898 122 878 673 10;
#X obj 415 249 switch~;
#X obj 430 198 loadbang;
#X obj 242 367 *~;
#X obj 257 290 loadbang;
#X obj 257 340 == 0;
#X msg 257 314 0;
#X msg 430 224 0;
#X obj 242 252 *~ 1;
#X obj 224 85 s \$0-mute;
#X obj 288 314 r \$0-mute;
#X obj 471 478 r \$0-position;
#X obj 492 501 r \$0-span;
#X obj 288 501 r \$0-span;
#X obj 265 478 r \$0-position;
#X obj 574 292 s \$0-report;
#N canvas 0 23 429 312 report 0;
#X obj 46 65 env~ 2048;
#X obj 46 90 change;
#X obj 46 187 spigot;
#X obj 46 39 inlet~;
#X obj 191 212 switch~;
#X msg 208 184 0;
#X obj 208 156 loadbang;
#X obj 191 91 r \$0-report;
#X obj 191 114 route level;
#X obj 46 212 outlet;
#X obj 46 117 - 100;
#X connect 0 0 1 0;
#X connect 1 0 10 0;
#X connect 2 0 9 0;
#X connect 3 0 0 0;
#X connect 5 0 4 0;
#X connect 6 0 5 0;
#X connect 7 0 8 0;
#X connect 8 0 2 1;
#X connect 8 0 4 0;
#X connect 10 0 2 0;
#X restore 363 405 pd report level;
#X obj 320 86 s \$0-directout;
#X obj 725 163 s \$0-hrtf;
#N canvas 787 45 510 515 algorithm 0;
#X obj 153 25 inlet;
#X obj 225 25 loadbang;
#X obj 192 305 t f b;
#X obj 192 332 until;
#X msg 235 333 0;
#X obj 192 358 f;
#X obj 222 359 + 1;
#X msg 222 382 \$1 0;
#X msg 192 279 2;
#X obj 172 410 route 0 1 2;
#X obj 46 283 sel 0;
#X obj 153 102 route VBAP vbap HOA hoa;
#X obj 385 128 route on;
#X msg 385 218 0 \$1;
#X msg 225 53 vbap;
#X msg 153 128 1;
#X msg 220 128 2;
#X text 233 305 turn off algos;
#X text 355 74 bypass algo \, use hrtf;
#X text 182 160 save last algo;
#X obj 153 221 spigot 1;
#X obj 385 155 t f f;
#X obj 153 160 f 1;
#X obj 153 189 pack 1 1;
#X obj 412 182 == 0;
#X text 13 305 output last algo;
#X msg 288 128 99;
#X obj 385 101 r \$0-hrtf;
#X msg 94 402 \$1;
#X obj 153 251 t a a b;
#X obj 94 426 change;
#X obj 94 475 s \$0-resend;
#X obj 193 475 s \$0-vbap;
#X msg 193 450 on \$1;
#X obj 265 475 s \$0-hoa;
#X msg 265 450 on \$1;
#X msg 94 450 bang;
#X text 223 75 choose algo;
#X text 317 128 none;
#X connect 0 0 11 0;
#X connect 1 0 14 0;
#X connect 2 0 3 0;
#X connect 2 1 4 0;
#X connect 3 0 5 0;
#X connect 4 0 5 1;
#X connect 5 0 6 0;
#X connect 6 0 5 1;
#X connect 6 0 7 0;
#X connect 7 0 9 0;
#X connect 8 0 2 0;
#X connect 9 0 10 0;
#X connect 9 1 33 0;
#X connect 9 2 35 0;
#X connect 10 0 22 0;
#X connect 11 0 15 0;
#X connect 11 1 15 0;
#X connect 11 2 16 0;
#X connect 11 3 16 0;
#X connect 11 4 26 0;
#X connect 12 0 21 0;
#X connect 13 0 29 0;
#X connect 14 0 11 0;
#X connect 15 0 22 0;
#X connect 16 0 22 0;
#X connect 20 0 29 0;
#X connect 21 0 13 0;
#X connect 21 1 24 0;
#X connect 22 0 23 0;
#X connect 23 0 20 0;
#X connect 24 0 20 1;
#X connect 26 0 22 0;
#X connect 27 0 12 0;
#X connect 28 0 30 0;
#X connect 29 0 28 0;
#X connect 29 1 9 0;
#X connect 29 2 8 0;
#X connect 30 0 36 0;
#X connect 33 0 32 0;
#X connect 35 0 34 0;
#X connect 36 0 31 0;
#X restore 177 108 pd algorithm;
#N canvas 501 31 419 271 input 0;
#X obj 66 19 inlet;
#X obj 66 213 outlet~;
#X obj 66 133 list prepend set;
#X obj 66 159 list trim;
#X obj 66 102 makefilename \$0-noinput;
#X obj 66 185 receive~ \$0-noinput;
#X obj 228 185 send~ \$0-noinput;
#X obj 228 103 makefilename zirk_input%d;
#X obj 66 74 sel 0;
#X obj 66 47 route float none;
#X msg 112 74 0;
#X connect 0 0 9 0;
#X connect 2 0 3 0;
#X connect 3 0 5 0;
#X connect 4 0 2 0;
#X connect 5 0 1 0;
#X connect 7 0 2 0;
#X connect 8 0 4 0;
#X connect 8 1 7 0;
#X connect 9 0 8 0;
#X connect 9 1 10 0;
#X connect 9 2 2 0;
#X connect 10 0 4 0;
#X restore 34 191 pd input;
#X obj 513 545 r \$0-hoa;
#X obj 311 545 r \$0-vbap;
#N canvas 169 23 285 168 print 0;
#X obj 44 37 inlet;
#X obj 44 92 list trim;
#X obj 44 118 print zirk_id \$1;
#X obj 44 67 list prepend unknown message:;
#X connect 0 0 3 0;
#X connect 1 0 2 0;
#X connect 3 0 1 0;
#X restore 763 138 pd print error;
#X obj 34 22 inlet;
#X obj 393 638 outlet;
#X obj 611 267 s \$0-vbap;
#X obj 242 571 zirk_vbap \$2;
#X obj 450 570 zirk_hoa \$2;
#X obj 649 244 s \$0-hoa;
#X obj 463 111 + 100;
#X obj 463 136 dbtorms;
#X obj 463 163 t f;
#X obj 463 85 route db gain float;
#X obj 574 111 route report vbap hoa optim hrtf;
#N canvas 947 39 467 266 direct 0;
#X obj 110 148 list prepend set;
#X obj 110 175 list trim;
#X obj 110 35 r \$0-directout;
#X obj 49 35 inlet~;
#X obj 110 119 makefilename \$0-nooutput;
#X obj 246 206 catch~ \$0-nooutput;
#X obj 110 205 throw~ \$0-nooutput;
#X obj 49 205 outlet~;
#X obj 271 119 makefilename zirk_output%d;
#X obj 110 91 sel 0;
#X obj 110 64 route float none;
#X msg 156 91 0;
#X connect 0 0 1 0;
#X connect 1 0 6 0;
#X connect 2 0 10 0;
#X connect 3 0 7 0;
#X connect 3 0 6 0;
#X connect 4 0 0 0;
#X connect 8 0 0 0;
#X connect 9 0 4 0;
#X connect 9 1 8 0;
#X connect 10 0 9 0;
#X connect 10 1 11 0;
#X connect 10 2 0 0;
#X connect 11 0 4 0;
#X restore 242 405 pd direct output;
#X obj 97 546 r \$0-hrtf;
#X obj 71 479 r \$0-position;
#X obj 46 571 zirk_hrtf;
#N canvas 0 23 325 226 position 0;
#X obj 69 128 list;
#X obj 167 55 inlet;
#X obj 167 89 t a a;
#X obj 69 175 s \$0-position;
#X text 49 22 store and resend last position;
#X obj 69 55 r \$0-resend;
#X connect 0 0 3 0;
#X connect 1 0 2 0;
#X connect 2 0 0 1;
#X connect 2 1 3 0;
#X connect 5 0 0 0;
#X restore 81 163 pd position;
#N canvas 0 23 325 226 span 0;
#X obj 167 55 inlet;
#X text 49 22 store and resend last position;
#X obj 69 55 r \$0-resend;
#X obj 69 128 f;
#X obj 167 89 t f f;
#X obj 69 175 s \$0-span;
#X connect 0 0 4 0;
#X connect 2 0 3 0;
#X connect 3 0 5 0;
#X connect 4 0 3 1;
#X connect 4 1 5 0;
#X restore 129 135 pd span;
#X text 591 84 redirect optim messages to hoa;
#X text 94 28 catch older muted & directout messages;
#X obj 34 57 route input position span algorithm mute muted directoutput
directout on, f 72;
#X obj 687 187 list prepend optim;
#X obj 363 432 outlet;
#N canvas 0 23 450 300 report 0;
#X obj 147 157 spigot;
#X obj 180 91 r \$0-report;
#X obj 147 182 outlet;
#X obj 147 62 inlet;
#X obj 180 118 route current;
#X connect 0 0 2 0;
#X connect 1 0 4 0;
#X connect 3 0 0 0;
#X connect 4 0 0 1;
#X restore 393 610 pd report current;
#X obj 687 214 list trim;
#X connect 1 0 6 0;
#X connect 2 0 15 0;
#X connect 2 0 34 0;
#X connect 3 0 5 0;
#X connect 4 0 2 1;
#X connect 5 0 4 0;
#X connect 6 0 0 0;
#X connect 7 0 2 0;
#X connect 9 0 4 0;
#X connect 10 0 27 1;
#X connect 11 0 27 2;
#X connect 12 0 26 2;
#X connect 13 0 26 1;
#X connect 15 0 44 0;
#X connect 19 0 7 0;
#X connect 20 0 27 3;
#X connect 21 0 26 3;
#X connect 23 0 42 0;
#X connect 26 0 45 0;
#X connect 29 0 30 0;
#X connect 30 0 31 0;
#X connect 31 0 7 1;
#X connect 32 0 29 0;
#X connect 32 1 29 0;
#X connect 32 2 31 0;
#X connect 32 3 33 0;
#X connect 33 0 14 0;
#X connect 33 1 25 0;
#X connect 33 2 28 0;
#X connect 33 3 43 0;
#X connect 33 4 17 0;
#X connect 33 5 22 0;
#X connect 34 0 26 0;
#X connect 34 0 27 0;
#X connect 34 0 37 0;
#X connect 35 0 37 2;
#X connect 36 0 37 1;
#X connect 42 0 19 0;
#X connect 42 1 38 0;
#X connect 42 2 39 0;
#X connect 42 3 18 0;
#X connect 42 4 8 0;
#X connect 42 5 8 0;
#X connect 42 6 16 0;
#X connect 42 7 16 0;
#X connect 42 8 0 0;
#X connect 42 9 32 0;
#X connect 43 0 46 0;
#X connect 45 0 24 0;
#X connect 46 0 28 0;
