#N canvas 178 41 641 341 10;
#X obj 301 129 list prepend dimension;
#X obj 55 168 list prepend speakers;
#X obj 214 193 list prepend order;
#X obj 214 286 list trim;
#X msg 301 99 \$1;
#X obj 21 99 list split 1;
#X obj 197 25 inlet;
#X obj 214 316 outlet;
#X obj 247 234 > 0;
#X text 321 261 dont send if order is < 1 \, use stereo instead;
#N canvas 750 318 316 406 degree 0;
#X obj 123 203 list split 1;
#X obj 123 132 until;
#X obj 123 158 list append;
#X obj 123 232 / 180;
#X obj 123 261 * 3.14159;
#X obj 219 292 t l;
#X obj 123 291 list prepend;
#X obj 60 337 list append;
#X obj 60 43 inlet;
#X obj 123 98 t b l b;
#X obj 60 68 t b l;
#X obj 60 366 outlet;
#X msg 249 177 bang;
#X msg 205 176 bang;
#X connect 0 0 3 0;
#X connect 0 1 2 1;
#X connect 0 2 13 0;
#X connect 1 0 2 0;
#X connect 2 0 0 0;
#X connect 3 0 4 0;
#X connect 4 0 6 0;
#X connect 5 0 6 1;
#X connect 6 0 5 0;
#X connect 6 0 7 1;
#X connect 7 0 11 0;
#X connect 8 0 10 0;
#X connect 9 0 1 0;
#X connect 9 1 2 1;
#X connect 9 2 12 0;
#X connect 10 0 7 0;
#X connect 10 1 9 0;
#X connect 12 0 6 1;
#X connect 13 0 1 1;
#X restore 55 129 pd degree to radian;
#N canvas 165 141 255 352 calc 0;
#X obj 33 39 inlet;
#X obj 33 192 spigot;
#X obj 66 167 == 2;
#X obj 155 192 spigot;
#X obj 188 167 == 3;
#X obj 33 221 - 1;
#X obj 33 247 / 2;
#X obj 155 221 sqrt;
#X obj 155 247 - 1;
#X obj 77 304 outlet;
#X obj 77 274 i;
#X obj 33 70 t l l;
#X msg 188 104 \$1;
#X obj 33 103 zirk_layout_count;
#X obj 152 304 outlet;
#X obj 68 131 t f f;
#X connect 0 0 11 0;
#X connect 1 0 5 0;
#X connect 2 0 1 1;
#X connect 3 0 7 0;
#X connect 4 0 3 1;
#X connect 5 0 6 0;
#X connect 6 0 10 0;
#X connect 7 0 8 0;
#X connect 8 0 10 0;
#X connect 10 0 9 0;
#X connect 11 0 13 0;
#X connect 11 1 12 0;
#X connect 12 0 4 0;
#X connect 12 0 2 0;
#X connect 13 0 15 0;
#X connect 15 0 1 0;
#X connect 15 0 3 0;
#X connect 15 1 14 0;
#X restore 470 99 pd calc order;
#X obj 214 169 f;
#X obj 197 58 t l b l l;
#X msg 545 184 count \$1;
#X obj 214 259 spigot;
#X obj 470 129 t f f;
#X text 253 26 message order: count \, dimension \, order \, speakers
;
#X connect 0 0 15 0;
#X connect 1 0 15 0;
#X connect 2 0 15 0;
#X connect 3 0 7 0;
#X connect 4 0 0 0;
#X connect 5 1 10 0;
#X connect 6 0 13 0;
#X connect 8 0 15 1;
#X connect 10 0 1 0;
#X connect 11 0 16 0;
#X connect 11 1 14 0;
#X connect 12 0 2 0;
#X connect 13 0 5 0;
#X connect 13 1 12 0;
#X connect 13 2 4 0;
#X connect 13 3 11 0;
#X connect 14 0 3 0;
#X connect 15 0 3 0;
#X connect 16 0 12 1;
#X connect 16 1 8 0;
