#N canvas 446 23 273 300 10;
#X text 110 113 * ~M_PI/2;
#X obj 46 113 * 1.5708;
#X obj 46 38 inlet;
#X obj 46 175 cos;
#X obj 146 177 sin;
#X obj 97 66 select 0 1;
#X obj 46 248 outlet;
#X obj 46 144 t f f;
#X obj 46 209 list prepend 0;
#X obj 146 209 list prepend 1;
#N canvas 453 23 355 279 arg1 0;
#X obj 179 122 makefilename $%d-EMPTY;
#X obj 52 123 symbol \$1-EMPTY;
#X msg 69 94 bang;
#X obj 52 155 select DUMMY;
#X obj 52 39 loadbang;
#X obj 52 62 t b b;
#X obj 179 95 1;
#X obj 52 222 outlet;
#X msg 52 184 0.5;
#X obj 121 185 f \$1;
#X connect 0 0 3 1;
#X connect 1 0 3 0;
#X connect 2 0 1 0;
#X connect 3 0 8 0;
#X connect 3 1 9 0;
#X connect 4 0 5 0;
#X connect 5 0 1 0;
#X connect 5 1 6 0;
#X connect 6 0 0 0;
#X connect 8 0 7 0;
#X connect 9 0 7 0;
#X restore 97 38 pd arg1;
#X connect 1 0 7 0;
#X connect 2 0 1 0;
#X connect 3 0 8 0;
#X connect 4 0 9 0;
#X connect 5 0 1 0;
#X connect 5 1 1 0;
#X connect 7 0 3 0;
#X connect 7 1 4 0;
#X connect 8 0 6 0;
#X connect 9 0 6 0;
#X connect 10 0 5 0;
