#N canvas 712 116 424 207 10;
#X obj 260 107 env~;
#X floatatom 260 159 5 0 0 0 - - -;
#X floatatom 123 93 5 -100 12 0 dB - -;
#X floatatom 52 93 5 0 1 0 rms - -;
#X text 170 117 gain;
#X msg 123 117 db \$1;
#X obj 260 79 receive~ zirk_input1;
#X text 40 45 creation args: channel;
#X text 257 44 receive using channel: zirk_input#, f 22;
#X text 114 72 -100 - +12;
#X text 52 71 0 - 1;
#X obj 52 159 zirk_input 1;
#X text 20 18 a single hardware input channel \, wraps [adc~];
#X obj 260 132 - 100;
#X connect 0 0 13 0;
#X connect 2 0 5 0;
#X connect 3 0 11 0;
#X connect 5 0 11 0;
#X connect 6 0 0 0;
#X connect 13 0 1 0;
