#N canvas 51 25 1363 658 10;
#X declare -path ./lib;
#X obj 86 365 *~ 1;
#X obj 119 365 *~ 1;
#X obj 152 365 *~ 1;
#X obj 186 365 *~ 1;
#X obj 219 365 *~ 1;
#X obj 252 365 *~ 1;
#X obj 286 365 *~ 1;
#X obj 319 365 *~ 1;
#X obj 1137 215 + 100;
#X obj 86 35 inlet;
#N canvas 169 23 285 168 print 0;
#X obj 44 37 inlet;
#X obj 44 92 list trim;
#X obj 44 67 list prepend unknown message:;
#X obj 44 118 print zirk_sourcefile \$1;
#X connect 0 0 2 0;
#X connect 1 0 3 0;
#X connect 2 0 1 0;
#X restore 1248 216 pd print error;
#X obj 1211 327 t f;
#X obj 1137 240 dbtorms;
#X obj 86 403 send~ zirk_sf\$1-1;
#X obj 119 429 send~ zirk_sf\$1-2;
#X obj 152 454 send~ zirk_sf\$1-3;
#X obj 186 480 send~ zirk_sf\$1-4;
#X obj 219 507 send~ zirk_sf\$1-5;
#X obj 252 533 send~ zirk_sf\$1-6;
#X obj 286 558 send~ zirk_sf\$1-7;
#X obj 319 584 send~ zirk_sf\$1-8;
#X obj 1137 189 route db gain float;
#X obj 35 280 line~;
#X msg 35 255 \$1 5;
#X obj 319 319 *~;
#X obj 286 319 *~;
#X obj 252 319 *~;
#X obj 219 319 *~;
#X obj 186 319 *~;
#X obj 152 319 *~;
#X obj 119 319 *~;
#X obj 86 319 *~;
#X text 208 33 5 ms start/stop ramp;
#X obj 86 255 readsf~ 32, f 164;
#X obj 367 366 *~ 1;
#X obj 400 366 *~ 1;
#X obj 433 366 *~ 1;
#X obj 467 366 *~ 1;
#X obj 500 366 *~ 1;
#X obj 533 366 *~ 1;
#X obj 567 366 *~ 1;
#X obj 600 366 *~ 1;
#X obj 600 320 *~;
#X obj 567 320 *~;
#X obj 533 320 *~;
#X obj 500 320 *~;
#X obj 467 320 *~;
#X obj 433 320 *~;
#X obj 400 320 *~;
#X obj 367 320 *~;
#X obj 646 365 *~ 1;
#X obj 679 365 *~ 1;
#X obj 712 365 *~ 1;
#X obj 746 365 *~ 1;
#X obj 779 365 *~ 1;
#X obj 812 365 *~ 1;
#X obj 846 365 *~ 1;
#X obj 879 365 *~ 1;
#X obj 879 319 *~;
#X obj 846 319 *~;
#X obj 812 319 *~;
#X obj 779 319 *~;
#X obj 746 319 *~;
#X obj 712 319 *~;
#X obj 679 319 *~;
#X obj 646 319 *~;
#X obj 926 365 *~ 1;
#X obj 959 365 *~ 1;
#X obj 992 365 *~ 1;
#X obj 1026 365 *~ 1;
#X obj 1059 365 *~ 1;
#X obj 1092 365 *~ 1;
#X obj 1126 365 *~ 1;
#X obj 1159 365 *~ 1;
#X obj 1159 319 *~;
#X obj 1126 319 *~;
#X obj 1092 319 *~;
#X obj 1059 319 *~;
#X obj 1026 319 *~;
#X obj 992 319 *~;
#X obj 959 319 *~;
#X obj 926 319 *~;
#X obj 367 404 send~ zirk_sf\$1-9;
#X obj 400 430 send~ zirk_sf\$1-10;
#X obj 433 455 send~ zirk_sf\$1-11;
#X obj 467 481 send~ zirk_sf\$1-12;
#X obj 500 508 send~ zirk_sf\$1-13;
#X obj 533 534 send~ zirk_sf\$1-14;
#X obj 567 559 send~ zirk_sf\$1-15;
#X obj 600 585 send~ zirk_sf\$1-16;
#X obj 646 403 send~ zirk_sf\$1-17;
#X obj 679 429 send~ zirk_sf\$1-18;
#X obj 712 454 send~ zirk_sf\$1-19;
#X obj 746 480 send~ zirk_sf\$1-20;
#X obj 779 507 send~ zirk_sf\$1-21;
#X obj 812 533 send~ zirk_sf\$1-22;
#X obj 846 558 send~ zirk_sf\$1-23;
#X obj 879 584 send~ zirk_sf\$1-24;
#X obj 926 403 send~ zirk_sf\$1-25;
#X obj 959 429 send~ zirk_sf\$1-26;
#X obj 992 454 send~ zirk_sf\$1-27;
#X obj 1026 480 send~ zirk_sf\$1-28;
#X obj 1059 507 send~ zirk_sf\$1-29;
#X obj 1092 533 send~ zirk_sf\$1-30;
#X obj 1126 558 send~ zirk_sf\$1-31;
#X obj 1159 584 send~ zirk_sf\$1-32;
#X obj 403 30 declare -path ./lib;
#X obj 137 192 switch~;
#X obj 86 68 sfcontrol;
#X obj 137 164 pipe 5;
#X obj 113 221 route float;
#X obj 86 135 t a a;
#X obj 197 192 spigot;
#X obj 197 221 outlet;
#X obj 231 135 route status done;
#X obj 251 192 spigot;
#X obj 137 135 t f f;
#X obj 137 107 route status done report;
#X obj 251 221 outlet;
#X connect 0 0 13 0;
#X connect 1 0 14 0;
#X connect 2 0 15 0;
#X connect 3 0 16 0;
#X connect 4 0 17 0;
#X connect 5 0 18 0;
#X connect 6 0 19 0;
#X connect 7 0 20 0;
#X connect 8 0 12 0;
#X connect 9 0 108 0;
#X connect 11 0 7 1;
#X connect 11 0 6 1;
#X connect 11 0 5 1;
#X connect 11 0 4 1;
#X connect 11 0 2 1;
#X connect 11 0 1 1;
#X connect 11 0 0 1;
#X connect 11 0 3 1;
#X connect 11 0 34 1;
#X connect 11 0 35 1;
#X connect 11 0 36 1;
#X connect 11 0 37 1;
#X connect 11 0 38 1;
#X connect 11 0 39 1;
#X connect 11 0 40 1;
#X connect 11 0 41 1;
#X connect 11 0 50 1;
#X connect 11 0 51 1;
#X connect 11 0 52 1;
#X connect 11 0 53 1;
#X connect 11 0 54 1;
#X connect 11 0 55 1;
#X connect 11 0 56 1;
#X connect 11 0 57 1;
#X connect 11 0 66 1;
#X connect 11 0 67 1;
#X connect 11 0 68 1;
#X connect 11 0 69 1;
#X connect 11 0 70 1;
#X connect 11 0 71 1;
#X connect 11 0 72 1;
#X connect 11 0 73 1;
#X connect 12 0 11 0;
#X connect 21 0 8 0;
#X connect 21 1 8 0;
#X connect 21 2 11 0;
#X connect 21 3 10 0;
#X connect 22 0 24 1;
#X connect 22 0 25 1;
#X connect 22 0 26 1;
#X connect 22 0 27 1;
#X connect 22 0 28 1;
#X connect 22 0 29 1;
#X connect 22 0 30 1;
#X connect 22 0 31 1;
#X connect 22 0 49 1;
#X connect 22 0 48 1;
#X connect 22 0 47 1;
#X connect 22 0 46 1;
#X connect 22 0 45 1;
#X connect 22 0 44 1;
#X connect 22 0 43 1;
#X connect 22 0 42 1;
#X connect 22 0 65 1;
#X connect 22 0 64 1;
#X connect 22 0 63 1;
#X connect 22 0 62 1;
#X connect 22 0 61 1;
#X connect 22 0 60 1;
#X connect 22 0 59 1;
#X connect 22 0 58 1;
#X connect 22 0 81 1;
#X connect 22 0 80 1;
#X connect 22 0 79 1;
#X connect 22 0 78 1;
#X connect 22 0 77 1;
#X connect 22 0 76 1;
#X connect 22 0 75 1;
#X connect 22 0 74 1;
#X connect 23 0 22 0;
#X connect 24 0 7 0;
#X connect 25 0 6 0;
#X connect 26 0 5 0;
#X connect 27 0 4 0;
#X connect 28 0 3 0;
#X connect 29 0 2 0;
#X connect 30 0 1 0;
#X connect 31 0 0 0;
#X connect 33 0 31 0;
#X connect 33 1 30 0;
#X connect 33 2 29 0;
#X connect 33 3 28 0;
#X connect 33 4 27 0;
#X connect 33 5 26 0;
#X connect 33 6 25 0;
#X connect 33 7 24 0;
#X connect 33 8 49 0;
#X connect 33 9 48 0;
#X connect 33 10 47 0;
#X connect 33 11 46 0;
#X connect 33 12 45 0;
#X connect 33 13 44 0;
#X connect 33 14 43 0;
#X connect 33 15 42 0;
#X connect 33 16 65 0;
#X connect 33 17 64 0;
#X connect 33 18 63 0;
#X connect 33 19 62 0;
#X connect 33 20 61 0;
#X connect 33 21 60 0;
#X connect 33 22 59 0;
#X connect 33 23 58 0;
#X connect 33 24 81 0;
#X connect 33 25 80 0;
#X connect 33 26 79 0;
#X connect 33 27 78 0;
#X connect 33 28 77 0;
#X connect 33 29 76 0;
#X connect 33 30 75 0;
#X connect 33 31 74 0;
#X connect 33 32 108 1;
#X connect 34 0 82 0;
#X connect 35 0 83 0;
#X connect 36 0 84 0;
#X connect 37 0 85 0;
#X connect 38 0 86 0;
#X connect 39 0 87 0;
#X connect 40 0 88 0;
#X connect 41 0 89 0;
#X connect 42 0 41 0;
#X connect 43 0 40 0;
#X connect 44 0 39 0;
#X connect 45 0 38 0;
#X connect 46 0 37 0;
#X connect 47 0 36 0;
#X connect 48 0 35 0;
#X connect 49 0 34 0;
#X connect 50 0 90 0;
#X connect 51 0 91 0;
#X connect 52 0 92 0;
#X connect 53 0 93 0;
#X connect 54 0 94 0;
#X connect 55 0 95 0;
#X connect 56 0 96 0;
#X connect 57 0 97 0;
#X connect 58 0 57 0;
#X connect 59 0 56 0;
#X connect 60 0 55 0;
#X connect 61 0 54 0;
#X connect 62 0 53 0;
#X connect 63 0 52 0;
#X connect 64 0 51 0;
#X connect 65 0 50 0;
#X connect 66 0 98 0;
#X connect 67 0 99 0;
#X connect 68 0 100 0;
#X connect 69 0 101 0;
#X connect 70 0 102 0;
#X connect 71 0 103 0;
#X connect 72 0 104 0;
#X connect 73 0 105 0;
#X connect 74 0 73 0;
#X connect 75 0 72 0;
#X connect 76 0 71 0;
#X connect 77 0 70 0;
#X connect 78 0 69 0;
#X connect 79 0 68 0;
#X connect 80 0 67 0;
#X connect 81 0 66 0;
#X connect 108 0 111 0;
#X connect 108 1 117 0;
#X connect 109 0 107 0;
#X connect 110 0 23 0;
#X connect 111 0 33 0;
#X connect 111 1 110 0;
#X connect 112 0 113 0;
#X connect 114 0 112 1;
#X connect 114 1 115 1;
#X connect 115 0 118 0;
#X connect 116 0 109 0;
#X connect 116 1 112 0;
#X connect 117 0 116 0;
#X connect 117 1 115 0;
#X connect 117 2 114 0;
#X connect 117 3 21 0;
