#N canvas 155 354 476 382 10;
#X declare -path ./externals/hrtf;
#X obj 101 120 unpack 0 0;
#X obj 43 15 inlet~;
#X obj 366 245 switch~;
#X msg 385 220 0;
#X obj 385 195 loadbang;
#X obj 43 244 zirkhrtf~;
#X obj 101 69 spigot;
#N canvas 0 23 162 236 hrtf 0;
#X obj 48 88 * -1;
#X obj 48 115 moses 0;
#X obj 48 45 inlet;
#X obj 48 186 outlet;
#X obj 48 142 + 360;
#X connect 0 0 1 0;
#X connect 1 0 4 0;
#X connect 1 1 3 0;
#X connect 2 0 0 0;
#X connect 4 0 3 0;
#X restore 101 150 pd hrtf convert;
#X obj 315 39 route on speed;
#X obj 101 15 inlet;
#X obj 315 13 inlet;
#X obj 101 95 lib/xyztoaed;
#X obj 43 345 throw~ zirk_hrtf1;
#X obj 94 321 throw~ zirk_hrtf2;
#X msg 161 71 0 0 0;
#X obj 161 38 loadbang;
#X obj 315 71 t f f;
#X obj 366 172 pipe 5;
#X obj 355 72 s \$0-speed;
#X obj 101 215 line;
#X obj 168 215 line;
#X obj 168 178 pack f 25;
#X obj 101 178 pack f 25;
#X obj 219 134 r \$0-speed;
#X obj 43 281 *~;
#X obj 94 282 *~;
#X obj 315 219 line~;
#X msg 315 194 \$1 5;
#X obj 366 125 sel 0;
#X msg 366 148 0;
#X obj 256 321 declare -path ./externals/hrtf;
#X connect 0 0 7 0;
#X connect 0 1 21 0;
#X connect 1 0 5 0;
#X connect 3 0 2 0;
#X connect 4 0 3 0;
#X connect 5 0 24 0;
#X connect 5 1 25 0;
#X connect 6 0 11 0;
#X connect 7 0 22 0;
#X connect 8 0 6 1;
#X connect 8 0 16 0;
#X connect 8 1 18 0;
#X connect 9 0 6 0;
#X connect 10 0 8 0;
#X connect 11 0 0 0;
#X connect 14 0 11 0;
#X connect 15 0 14 0;
#X connect 16 0 27 0;
#X connect 16 1 28 0;
#X connect 17 0 2 0;
#X connect 19 0 5 1;
#X connect 20 0 5 2;
#X connect 21 0 20 0;
#X connect 22 0 19 0;
#X connect 23 0 22 1;
#X connect 23 0 21 1;
#X connect 24 0 12 0;
#X connect 25 0 13 0;
#X connect 26 0 25 1;
#X connect 26 0 24 1;
#X connect 27 0 26 0;
#X connect 28 0 29 0;
#X connect 28 1 2 0;
#X connect 29 0 17 0;
