#N canvas 477 111 454 281 10;
#X obj 109 250 dac~;
#X obj 303 78 route gain db float;
#X obj 303 110 + 100;
#X obj 303 135 dbtorms;
#X obj 303 160 t f;
#X obj 303 45 inlet;
#X text 32 13 stereo HRTF receiver;
#X obj 173 45 catch~ zirk_hrtf2;
#X obj 33 45 catch~ zirk_hrtf1;
#X obj 173 206 *~ 1;
#X obj 33 206 *~ 1;
#X connect 1 0 2 0;
#X connect 1 1 2 0;
#X connect 1 2 4 0;
#X connect 2 0 3 0;
#X connect 3 0 4 0;
#X connect 4 0 9 1;
#X connect 4 0 10 1;
#X connect 5 0 1 0;
#X connect 7 0 9 0;
#X connect 8 0 10 0;
#X connect 9 0 0 1;
#X connect 10 0 0 0;
