#N canvas 466 137 839 415 10;
#X obj 208 375 throw~ out\$1;
#X obj 325 48 route \$1;
#X msg 515 359 set out\$1;
#X obj 208 22 catch~ speaker\$1;
#X obj 28 159 env~ 2048;
#X obj 28 205 list prepend \$1;
#X obj 28 327 list prepend speakerDB;
#X obj 28 350 list trim;
#X obj 325 23 r Speaker;
#X obj 579 213 switch~;
#X obj 579 173 tgl 15 0 empty empty empty 17 7 0 10 -262144 -1 -1 1
1;
#X obj 588 123 loadbang;
#N canvas 0 23 300 170 DelayCompensation 0;
#X obj 26 67 delwrite~ delayForHardwareOut\$1 1000;
#X obj 26 95 delread~ delayForHardwareOut\$1 0;
#X obj 26 130 outlet~;
#X obj 26 21 inlet~;
#X obj 101 19 inlet;
#X connect 1 0 2 0;
#X connect 3 0 0 0;
#X connect 4 0 1 0;
#X restore 208 100 pd DelayCompensation;
#N canvas 0 23 276 185 PhaseCorrection 0;
#X obj 76 143 outlet~;
#X obj 76 34 inlet~;
#X obj 76 111 *~ 1;
#X obj 125 36 inlet;
#X obj 125 64 sel 1 0;
#X msg 125 90 -1;
#X msg 160 90 1;
#X connect 1 0 2 0;
#X connect 2 0 0 0;
#X connect 3 0 4 0;
#X connect 4 0 5 0;
#X connect 4 1 6 0;
#X connect 5 0 2 1;
#X connect 6 0 2 1;
#X restore 208 129 pd PhaseCorrection;
#X obj 208 313 *~;
#N canvas 231 105 174 192 db_to_amp 0;
#X msg 40 90 10;
#X obj 40 64 t b f;
#X obj 40 116 pow;
#X obj 40 38 / 20;
#X obj 40 12 inlet;
#X obj 40 142 outlet;
#X obj 91 117 dbtorms;
#X obj 91 39 + 100;
#X connect 0 0 2 0;
#X connect 1 0 0 0;
#X connect 1 1 2 1;
#X connect 3 0 1 0;
#X connect 4 0 7 0;
#X connect 6 0 5 0;
#X connect 7 0 6 0;
#X restore 452 296 pd db_to_amp;
#X obj 614 38 print speaker_\$1;
#X obj 549 16 print Speaker \$1 activation;
#X obj 642 358 writesf~;
#X obj 325 73 route delay phaseCorrection gain outputChannel activate
bounce, f 64;
#X obj 699 282 print speaker_\$1;
#X obj 28 182 change;
#X obj 61 273 tgl 15 0 empty empty empty 17 7 0 10 -262144 -1 -1 0
1;
#X obj 28 304 spigot;
#X obj 61 238 r SpeakerLevelReport;
#X obj 642 164 route open;
#X obj 642 227 list trim;
#X obj 642 193 list prepend open -bytes 3;
#X obj 28 373 s #zirk-out;
#X text 77 182 TODO: put this in subpatch using switch~;
#X msg 588 150 0;
#X connect 1 0 19 0;
#X connect 2 0 0 0;
#X connect 3 0 4 0;
#X connect 3 0 12 0;
#X connect 4 0 21 0;
#X connect 5 0 23 0;
#X connect 6 0 7 0;
#X connect 7 0 28 0;
#X connect 8 0 1 0;
#X connect 10 0 9 0;
#X connect 11 0 30 0;
#X connect 12 0 13 0;
#X connect 13 0 14 0;
#X connect 14 0 0 0;
#X connect 14 0 18 0;
#X connect 15 0 14 1;
#X connect 19 0 12 1;
#X connect 19 1 13 1;
#X connect 19 2 15 0;
#X connect 19 3 2 0;
#X connect 19 4 10 0;
#X connect 19 5 25 0;
#X connect 21 0 5 0;
#X connect 22 0 23 1;
#X connect 23 0 6 0;
#X connect 24 0 22 0;
#X connect 25 0 27 0;
#X connect 25 1 20 0;
#X connect 25 1 18 0;
#X connect 26 0 20 0;
#X connect 26 0 18 0;
#X connect 27 0 26 0;
#X connect 30 0 10 0;
