#N canvas 537 65 286 289 10;
#X obj 42 42 adc~ \$1;
#X obj 42 194 *~ 1;
#X obj 63 73 inlet;
#X obj 63 159 dbtorms;
#X obj 63 132 + 100;
#X obj 42 225 send~ zirk_input\$1;
#X obj 63 105 route db gain float;
#N canvas 169 23 285 168 print 0;
#X obj 44 37 inlet;
#X obj 44 92 list trim;
#X obj 44 67 list prepend unknown message:;
#X obj 44 118 print zirk_input \$1;
#X connect 0 0 2 0;
#X connect 1 0 3 0;
#X connect 2 0 1 0;
#X restore 174 132 pd print error;
#X connect 0 0 1 0;
#X connect 1 0 5 0;
#X connect 2 0 6 0;
#X connect 3 0 1 1;
#X connect 4 0 3 0;
#X connect 6 0 4 0;
#X connect 6 1 4 0;
#X connect 6 2 1 1;
#X connect 6 3 7 0;
