#N canvas 51 25 892 626 10;
#X declare -path ./lib;
#X obj 86 365 *~ 1;
#X obj 119 365 *~ 1;
#X obj 152 365 *~ 1;
#X obj 186 365 *~ 1;
#X obj 219 365 *~ 1;
#X obj 252 365 *~ 1;
#X obj 286 365 *~ 1;
#X obj 319 365 *~ 1;
#X obj 647 215 + 100;
#X obj 86 35 inlet;
#N canvas 169 23 285 168 print 0;
#X obj 44 37 inlet;
#X obj 44 92 list trim;
#X obj 44 67 list prepend unknown message:;
#X obj 44 118 print zirk_sourcefile \$1;
#X connect 0 0 2 0;
#X connect 1 0 3 0;
#X connect 2 0 1 0;
#X restore 758 216 pd print error;
#X obj 721 327 t f;
#X obj 647 240 dbtorms;
#X obj 86 403 send~ zirk_sf\$1-1;
#X obj 119 429 send~ zirk_sf\$1-2;
#X obj 152 454 send~ zirk_sf\$1-3;
#X obj 186 480 send~ zirk_sf\$1-4;
#X obj 219 507 send~ zirk_sf\$1-5;
#X obj 252 533 send~ zirk_sf\$1-6;
#X obj 286 558 send~ zirk_sf\$1-7;
#X obj 319 584 send~ zirk_sf\$1-8;
#X obj 647 189 route db gain float;
#X obj 35 280 line~;
#X msg 35 255 \$1 5;
#X obj 319 319 *~;
#X obj 286 319 *~;
#X obj 252 319 *~;
#X obj 219 319 *~;
#X obj 186 319 *~;
#X obj 152 319 *~;
#X obj 119 319 *~;
#X obj 86 319 *~;
#X text 208 33 5 ms start/stop ramp;
#X obj 367 366 *~ 1;
#X obj 400 366 *~ 1;
#X obj 433 366 *~ 1;
#X obj 467 366 *~ 1;
#X obj 500 366 *~ 1;
#X obj 533 366 *~ 1;
#X obj 567 366 *~ 1;
#X obj 600 366 *~ 1;
#X obj 600 320 *~;
#X obj 567 320 *~;
#X obj 533 320 *~;
#X obj 500 320 *~;
#X obj 467 320 *~;
#X obj 433 320 *~;
#X obj 400 320 *~;
#X obj 367 320 *~;
#X obj 367 404 send~ zirk_sf\$1-9;
#X obj 400 430 send~ zirk_sf\$1-10;
#X obj 433 455 send~ zirk_sf\$1-11;
#X obj 467 481 send~ zirk_sf\$1-12;
#X obj 500 508 send~ zirk_sf\$1-13;
#X obj 533 534 send~ zirk_sf\$1-14;
#X obj 567 559 send~ zirk_sf\$1-15;
#X obj 600 585 send~ zirk_sf\$1-16;
#X obj 86 255 readsf~ 16, f 89;
#X obj 403 30 declare -path ./lib;
#X obj 137 192 switch~;
#X obj 86 68 sfcontrol;
#X obj 137 164 pipe 5;
#X obj 113 221 route float;
#X obj 86 135 t a a;
#X obj 197 192 spigot;
#X obj 197 221 outlet;
#X obj 231 135 route status done;
#X obj 251 192 spigot;
#X obj 137 135 t f f;
#X obj 137 107 route status done report;
#X obj 251 221 outlet;
#X connect 0 0 13 0;
#X connect 1 0 14 0;
#X connect 2 0 15 0;
#X connect 3 0 16 0;
#X connect 4 0 17 0;
#X connect 5 0 18 0;
#X connect 6 0 19 0;
#X connect 7 0 20 0;
#X connect 8 0 12 0;
#X connect 9 0 60 0;
#X connect 11 0 7 1;
#X connect 11 0 6 1;
#X connect 11 0 5 1;
#X connect 11 0 4 1;
#X connect 11 0 2 1;
#X connect 11 0 1 1;
#X connect 11 0 0 1;
#X connect 11 0 3 1;
#X connect 11 0 33 1;
#X connect 11 0 34 1;
#X connect 11 0 35 1;
#X connect 11 0 36 1;
#X connect 11 0 37 1;
#X connect 11 0 38 1;
#X connect 11 0 39 1;
#X connect 11 0 40 1;
#X connect 12 0 11 0;
#X connect 21 0 8 0;
#X connect 21 1 8 0;
#X connect 21 2 11 0;
#X connect 21 3 10 0;
#X connect 22 0 24 1;
#X connect 22 0 25 1;
#X connect 22 0 26 1;
#X connect 22 0 27 1;
#X connect 22 0 28 1;
#X connect 22 0 29 1;
#X connect 22 0 30 1;
#X connect 22 0 31 1;
#X connect 22 0 48 1;
#X connect 22 0 47 1;
#X connect 22 0 46 1;
#X connect 22 0 45 1;
#X connect 22 0 44 1;
#X connect 22 0 43 1;
#X connect 22 0 42 1;
#X connect 22 0 41 1;
#X connect 23 0 22 0;
#X connect 24 0 7 0;
#X connect 25 0 6 0;
#X connect 26 0 5 0;
#X connect 27 0 4 0;
#X connect 28 0 3 0;
#X connect 29 0 2 0;
#X connect 30 0 1 0;
#X connect 31 0 0 0;
#X connect 33 0 49 0;
#X connect 34 0 50 0;
#X connect 35 0 51 0;
#X connect 36 0 52 0;
#X connect 37 0 53 0;
#X connect 38 0 54 0;
#X connect 39 0 55 0;
#X connect 40 0 56 0;
#X connect 41 0 40 0;
#X connect 42 0 39 0;
#X connect 43 0 38 0;
#X connect 44 0 37 0;
#X connect 45 0 36 0;
#X connect 46 0 35 0;
#X connect 47 0 34 0;
#X connect 48 0 33 0;
#X connect 57 0 31 0;
#X connect 57 1 30 0;
#X connect 57 2 29 0;
#X connect 57 3 28 0;
#X connect 57 4 27 0;
#X connect 57 5 26 0;
#X connect 57 6 25 0;
#X connect 57 7 24 0;
#X connect 57 8 48 0;
#X connect 57 9 47 0;
#X connect 57 10 46 0;
#X connect 57 11 45 0;
#X connect 57 12 44 0;
#X connect 57 13 43 0;
#X connect 57 14 42 0;
#X connect 57 15 41 0;
#X connect 57 16 60 1;
#X connect 60 0 63 0;
#X connect 60 1 69 0;
#X connect 61 0 59 0;
#X connect 62 0 23 0;
#X connect 63 0 57 0;
#X connect 63 1 62 0;
#X connect 64 0 65 0;
#X connect 66 0 64 1;
#X connect 66 1 67 1;
#X connect 67 0 70 0;
#X connect 68 0 61 0;
#X connect 68 1 64 0;
#X connect 69 0 68 0;
#X connect 69 1 67 0;
#X connect 69 2 66 0;
#X connect 69 3 21 0;
