#N canvas 0 23 503 608 10;
#X obj 87 391 send~ sf\$1-1;
#X obj 120 417 send~ sf\$1-2;
#X obj 153 442 send~ sf\$1-3;
#X obj 187 468 send~ sf\$1-4;
#X obj 220 495 send~ sf\$1-5;
#X obj 253 521 send~ sf\$1-6;
#X obj 287 546 send~ sf\$1-7;
#X obj 320 572 send~ sf\$1-8;
#X obj 66 19 r SoundFile;
#X msg 155 103 1;
#X obj 66 47 route \$1;
#X obj 36 103 list prepend open;
#X obj 36 131 list trim;
#X obj 87 273 readsf~ 8, f 45;
#X msg 244 103 0;
#X obj 36 155 t a b;
#X msg 63 179 1;
#X text 176 23 disable dsp unless being used;
#X obj 182 234 switch~;
#X obj 234 182 loadbang;
#X msg 234 208 0;
#X obj 182 208 pipe 5;
#X obj 155 182 t f f;
#X obj 155 157 moses 1;
#X obj 194 182 t f f;
#X text 267 207 make sure samples are output before switching off,
f 23;
#X obj 87 362 *~ 1;
#X obj 341 316 dbtorms;
#X obj 120 362 *~ 1;
#X obj 153 362 *~ 1;
#X obj 187 362 *~ 1;
#X obj 220 362 *~ 1;
#X obj 253 362 *~ 1;
#X obj 287 362 *~ 1;
#X obj 320 362 *~ 1;
#X obj 66 75 route open play stop gain, f 60;
#X obj 447 208 + 100;
#X connect 8 0 10 0;
#X connect 9 0 23 0;
#X connect 10 0 35 0;
#X connect 11 0 12 0;
#X connect 12 0 15 0;
#X connect 13 0 26 0;
#X connect 13 1 28 0;
#X connect 13 2 29 0;
#X connect 13 3 30 0;
#X connect 13 4 31 0;
#X connect 13 5 32 0;
#X connect 13 6 33 0;
#X connect 13 7 34 0;
#X connect 14 0 23 0;
#X connect 15 0 13 0;
#X connect 15 1 16 0;
#X connect 16 0 21 0;
#X connect 19 0 20 0;
#X connect 20 0 18 0;
#X connect 21 0 18 0;
#X connect 22 0 13 0;
#X connect 22 1 21 0;
#X connect 23 0 22 0;
#X connect 23 1 24 0;
#X connect 24 0 13 0;
#X connect 24 1 21 0;
#X connect 26 0 0 0;
#X connect 27 0 34 1;
#X connect 27 0 33 1;
#X connect 27 0 32 1;
#X connect 27 0 31 1;
#X connect 27 0 29 1;
#X connect 27 0 28 1;
#X connect 27 0 26 1;
#X connect 27 0 30 1;
#X connect 28 0 1 0;
#X connect 29 0 2 0;
#X connect 30 0 3 0;
#X connect 31 0 4 0;
#X connect 32 0 5 0;
#X connect 33 0 6 0;
#X connect 34 0 7 0;
#X connect 35 0 11 0;
#X connect 35 1 9 0;
#X connect 35 2 14 0;
#X connect 35 3 36 0;
#X connect 36 0 27 0;
