#N canvas 930 98 866 828 10;
#X obj 164 19 r ID;
#X obj 164 44 route \$1;
#X obj 564 233 switch~;
#X obj 564 201 tgl 15 0 empty empty empty 17 7 0 10 -262144 -1 -1 0
1;
#X obj 590 160 loadbang;
#X obj 164 347 *~;
#X obj 261 260 loadbang;
#X obj 374 362 symbol;
#X obj 292 311 == 0;
#X msg 261 284 0;
#X obj 374 655 tgl 15 0 empty empty empty 17 7 0 10 -262144 -1 -1 0
1;
#X msg 374 467 1;
#X msg 575 467 1;
#X obj 374 389 t s b;
#X obj 44 319 list prepend set;
#X obj 44 350 list trim;
#X obj 44 377 throw~ out0;
#X obj 575 655 tgl 15 0 empty empty empty 17 7 0 10 -262144 -1 -1 0
1;
#X obj 349 562 * 100;
#X obj 164 159 list prepend set;
#X obj 164 182 list trim;
#X obj 164 205 receive~ noinput;
#X obj 47 542 *~;
#X obj 299 706 *~;
#X obj 47 490 == 1;
#X obj 132 489 == 0;
#X obj 143 437 loadbang;
#X msg 143 462 0;
#X obj 299 766 VBAPModule \$1;
#X obj 106 532 sel 0 1;
#X obj 106 405 r HRTF;
#N canvas 0 23 234 312 IDLevelReport 0;
#X obj 46 113 list prepend \$1;
#X obj 46 237 list trim;
#X obj 46 65 env~ 2048;
#X obj 46 90 change;
#X obj 46 212 list prepend IDDB;
#X obj 79 164 tgl 15 0 empty empty empty 17 7 0 10 -262144 -1 -1 0
1;
#X obj 46 187 spigot;
#X obj 79 141 r IDLevelReport;
#X obj 46 39 inlet~;
#X obj 46 262 s #zirk-out;
#X connect 0 0 6 0;
#X connect 1 0 9 0;
#X connect 2 0 3 0;
#X connect 3 0 0 0;
#X connect 4 0 1 0;
#X connect 5 0 6 1;
#X connect 6 0 4 0;
#X connect 7 0 5 0;
#X connect 8 0 2 0;
#X restore 207 379 pd IDLevelReport;
#X msg 590 184 0;
#X obj 374 418 sel VBAP HOA;
#X obj 47 792 throw~ hrtfL;
#X obj 134 792 throw~ hrtfR;
#N canvas 0 23 539 327 HRTF 0;
#X obj 104 51 r \$1_position;
#X obj 104 153 unpack 0 0;
#X obj 104 205 pack 0 25;
#X obj 167 205 pack 0 25;
#X obj 167 229 line 0 5;
#X obj 104 229 line 0 5;
#N canvas 0 23 450 300 hrtf_convert 0;
#X obj 131 114 * -1;
#X obj 131 168 + 360;
#X obj 131 141 moses 0;
#X obj 131 71 inlet;
#X obj 131 212 outlet;
#X connect 0 0 2 0;
#X connect 1 0 4 0;
#X connect 2 0 1 0;
#X connect 2 1 4 0;
#X connect 3 0 0 0;
#X restore 104 179 pd hrtf_convert;
#X obj 58 19 inlet~;
#X obj 58 284 outlet~;
#X obj 116 284 outlet~;
#X obj 220 150 switch~;
#X obj 220 123 tgl 15 0 empty empty empty 17 7 0 10 -262144 -1 -1 0
1;
#X msg 246 101 0;
#X obj 246 76 loadbang;
#X obj 220 52 r HRTF;
#X obj 58 258 zirkhrtf~;
#X text 185 260 <--- not provided as a part of package because of the
license issue;
#X obj 104 128 xyz2aed;
#X obj 104 102 spigot;
#X connect 0 0 18 0;
#X connect 1 0 6 0;
#X connect 1 1 3 0;
#X connect 2 0 5 0;
#X connect 3 0 4 0;
#X connect 4 0 15 2;
#X connect 5 0 15 1;
#X connect 6 0 2 0;
#X connect 7 0 15 0;
#X connect 11 0 10 0;
#X connect 11 0 18 1;
#X connect 12 0 11 0;
#X connect 13 0 12 0;
#X connect 14 0 11 0;
#X connect 15 0 8 0;
#X connect 15 1 9 0;
#X connect 17 0 1 0;
#X connect 18 0 17 0;
#X restore 47 761 pd HRTF;
#X text 214 17 position format should be x y z;
#X obj 506 766 HOAModule \$1;
#X obj 599 655 f;
#X obj 401 655 f;
#X msg 125 569 0;
#X msg 623 427 0;
#X obj 164 319 *~ 1;
#X obj 185 285 dbtorms;
#X obj 185 260 + 100;
#X obj 164 70 route input position span muted algorithm optim directOut
oscAddress activate gain, f 84;
#X obj 214 105 s \$0-position;
#X obj 264 130 s \$0-span;
#X obj 314 158 s \$0-mute;
#X obj 364 185 s \$0-algorithm;
#X obj 414 209 s \$0-optim;
#X obj 464 234 s \$0-directOut;
#X obj 514 258 s \$0-oscAddress;
#X obj 665 105 print id \$1 unknown message:;
#X obj 614 132 s \$0-gain;
#X obj 292 285 r \$0-mute;
#X obj 44 287 r \$0-directOut;
#X obj 185 233 r \$0-gain;
#X obj 125 601 s \$0-algo_force_close;
#X obj 106 668 s \$0-algo_restore;
#X obj 401 585 r \$0-algo_restore;
#X obj 415 613 r \$0-algo_close;
#X obj 599 585 r \$0-algo_restore;
#X obj 620 613 r \$0-algo_close;
#X obj 623 708 r \$0-algo_force_close;
#X obj 523 518 r \$0-position;
#X obj 540 540 r \$0-span;
#X obj 349 540 r \$0-span;
#X obj 324 518 r \$0-position;
#X obj 623 468 s \$0-algo_close;
#X obj 557 680 r \$0-optim;
#X obj 374 339 r \$0-algorithm;
#X connect 0 0 1 0;
#X connect 1 0 46 0;
#X connect 3 0 2 0;
#X connect 4 0 32 0;
#X connect 5 0 16 0;
#X connect 5 0 22 1;
#X connect 5 0 23 1;
#X connect 5 0 31 0;
#X connect 6 0 9 0;
#X connect 7 0 13 0;
#X connect 8 0 5 1;
#X connect 9 0 8 0;
#X connect 10 0 28 3;
#X connect 10 0 40 1;
#X connect 11 0 10 0;
#X connect 12 0 17 0;
#X connect 13 0 33 0;
#X connect 13 1 42 0;
#X connect 14 0 15 0;
#X connect 15 0 16 0;
#X connect 17 0 38 4;
#X connect 17 0 39 1;
#X connect 18 0 28 2;
#X connect 19 0 20 0;
#X connect 20 0 21 0;
#X connect 21 0 43 0;
#X connect 22 0 36 0;
#X connect 23 0 28 0;
#X connect 23 0 38 0;
#X connect 24 0 22 0;
#X connect 25 0 23 0;
#X connect 26 0 27 0;
#X connect 27 0 25 0;
#X connect 29 0 60 0;
#X connect 29 1 41 0;
#X connect 30 0 24 0;
#X connect 30 0 25 0;
#X connect 30 0 29 0;
#X connect 32 0 3 0;
#X connect 33 0 11 0;
#X connect 33 1 12 0;
#X connect 36 0 34 0;
#X connect 36 1 35 0;
#X connect 39 0 17 0;
#X connect 40 0 10 0;
#X connect 41 0 59 0;
#X connect 42 0 70 0;
#X connect 43 0 5 0;
#X connect 44 0 43 1;
#X connect 45 0 44 0;
#X connect 46 0 19 0;
#X connect 46 1 47 0;
#X connect 46 2 48 0;
#X connect 46 3 49 0;
#X connect 46 4 50 0;
#X connect 46 5 51 0;
#X connect 46 6 52 0;
#X connect 46 7 53 0;
#X connect 46 8 3 0;
#X connect 46 9 55 0;
#X connect 46 10 54 0;
#X connect 56 0 8 0;
#X connect 57 0 14 0;
#X connect 58 0 45 0;
#X connect 61 0 40 0;
#X connect 62 0 10 0;
#X connect 63 0 39 0;
#X connect 64 0 17 0;
#X connect 65 0 38 4;
#X connect 65 0 28 3;
#X connect 66 0 38 1;
#X connect 67 0 38 2;
#X connect 68 0 18 0;
#X connect 69 0 28 1;
#X connect 71 0 38 3;
#X connect 72 0 7 0;
