#N canvas 672 376 434 216 10;
#X obj 276 109 osc~ 440;
#X obj 276 136 *~ 0.1;
#X floatatom 122 92 5 -100 12 0 dB - -;
#X floatatom 51 92 5 0 1 0 rms - -;
#X text 169 116 gain;
#X msg 122 116 db \$1;
#X obj 276 165 throw~ zirk_output1;
#X text 114 72 -100 - +12;
#X text 52 71 0 - 1;
#X text 273 66 send using channel: zirk_output#, f 19;
#X text 39 44 creation args: channel;
#X obj 51 165 zirk_output 1;
#X text 19 17 a single hardware output channel \, wraps [dac~];
#X connect 0 0 1 0;
#X connect 1 0 6 0;
#X connect 2 0 5 0;
#X connect 3 0 11 0;
#X connect 5 0 11 0;
