#N canvas 267 23 315 273 10;
#X obj 128 144 circlewrap;
#X floatatom 128 113 5 0 0 0 - - -;
#X obj 131 206 hsl 64 15 -180 180 0 0 empty empty empty -2 -8 0 10
-262144 -1 -1 6300 1;
#X floatatom 128 176 5 0 0 0 - - -;
#X msg 94 71 -90;
#X msg 51 71 -270;
#X msg 128 71 0;
#X msg 169 71 90;
#X msg 209 71 270;
#X text 43 26 wrap degrees to range -180 to 180;
#X connect 0 0 3 0;
#X connect 1 0 0 0;
#X connect 3 0 2 0;
#X connect 4 0 1 0;
#X connect 5 0 1 0;
#X connect 6 0 1 0;
#X connect 7 0 1 0;
#X connect 8 0 1 0;
