#N canvas 157 114 546 597 10;
#X msg 192 218 stop;
#X text 221 188 <-- then play;
#X obj 63 70 openpanel;
#X obj 63 46 bng 15 250 50 0 empty empty empty 17 7 0 10 -262144 -1
-1;
#X obj 63 121 symbol;
#X text 137 77 >-- open first;
#X msg 177 187 start;
#X msg 63 145 open \$1;
#X obj 151 121 symbol;
#X obj 78 98 bng 15 250 50 0 empty empty empty 17 7 0 10 -262144 -1
-1;
#X obj 151 98 bng 15 250 50 0 empty empty empty 17 7 0 10 -262144 -1
-1;
#X text 244 146 optional sample offset;
#X msg 151 145 open \$1 41000;
#X obj 34 552 dac~;
#X obj 34 438 readsf~ 2;
#X obj 151 438 print;
#X obj 202 496 tgl 15 0 empty empty empty 17 7 0 10 -262144 -1 -1 0
1;
#X obj 202 552 switch~;
#X obj 261 496 loadbang;
#X msg 261 525 0;
#X msg 243 273 loop \$1;
#X obj 243 245 tgl 15 0 empty empty empty 17 7 0 10 -262144 -1 -1 0
1;
#X text 267 245 restart on end?;
#X obj 251 468 bng 15 250 50 0 empty empty empty 17 7 0 10 -262144
-1 -1;
#X text 270 468 file done playing \, not stopped manually;
#X text 31 16 control readsf~ playback messaging;
#X text 225 343 right inlet: readsf~ done outlet;
#X obj 151 342 sfcontrol;
#X obj 301 438 print unmatched;
#X text 320 407 pass out unmatched commands;
#X msg 262 309 foo bar;
#X text 145 496 status;
#X obj 202 405 route status done;
#X connect 0 0 27 0;
#X connect 2 0 4 0;
#X connect 3 0 2 0;
#X connect 4 0 7 0;
#X connect 4 0 8 1;
#X connect 6 0 27 0;
#X connect 7 0 27 0;
#X connect 8 0 12 0;
#X connect 9 0 4 0;
#X connect 10 0 8 0;
#X connect 12 0 27 0;
#X connect 14 0 13 0;
#X connect 14 1 13 1;
#X connect 14 2 27 1;
#X connect 16 0 17 0;
#X connect 18 0 19 0;
#X connect 19 0 17 0;
#X connect 20 0 27 0;
#X connect 21 0 20 0;
#X connect 27 0 15 0;
#X connect 27 0 14 0;
#X connect 27 1 32 0;
#X connect 30 0 27 0;
#X connect 32 0 16 0;
#X connect 32 1 23 0;
#X connect 32 2 28 0;
