#N canvas 271 206 780 495 10;
#X obj 44 177 list split 1;
#X msg 258 245 0;
#X obj 78 207 route float;
#X obj 44 345 list prepend open;
#X obj 44 374 list append 0;
#X obj 44 316 symbol;
#X obj 44 403 list trim;
#X obj 480 245 symbol;
#X obj 219 177 spigot 0;
#X msg 384 245 1;
#X obj 219 207 t b b b;
#X msg 480 177 0;
#X text 533 244 clear path;
#X text 278 176 retrigger loop, f 9;
#X obj 226 41 inlet;
#X obj 44 453 outlet;
#X obj 617 41 inlet;
#X obj 617 453 outlet;
#X text 44 141 open;
#X text 147 373 onset;
#X msg 218 400 1;
#X obj 662 177 moses 1;
#X msg 662 207 1;
#X msg 701 207 0;
#X obj 226 75 route open loop start stop;
#X text 670 244 done playing;
#X obj 480 207 t b f f;
#X obj 384 298 t f f;
#X msg 617 338 done;
#X msg 586 306 0;
#X obj 617 274 t b b;
#X obj 617 245 spigot 1;
#X msg 499 337 status \$1;
#X connect 0 0 5 0;
#X connect 0 1 2 0;
#X connect 1 0 4 1;
#X connect 2 0 4 1;
#X connect 2 1 1 0;
#X connect 3 0 4 0;
#X connect 4 0 6 0;
#X connect 5 0 3 0;
#X connect 6 0 15 0;
#X connect 7 0 5 1;
#X connect 8 0 10 0;
#X connect 9 0 27 0;
#X connect 10 0 20 0;
#X connect 10 1 5 0;
#X connect 10 2 1 0;
#X connect 11 0 26 0;
#X connect 14 0 24 0;
#X connect 16 0 8 0;
#X connect 16 0 31 0;
#X connect 20 0 15 0;
#X connect 21 0 22 0;
#X connect 21 1 23 0;
#X connect 22 0 31 1;
#X connect 23 0 31 1;
#X connect 24 0 0 0;
#X connect 24 1 8 1;
#X connect 24 1 21 0;
#X connect 24 2 9 0;
#X connect 24 3 11 0;
#X connect 24 4 17 0;
#X connect 26 0 7 0;
#X connect 26 1 32 0;
#X connect 26 2 15 0;
#X connect 27 0 15 0;
#X connect 27 1 32 0;
#X connect 28 0 17 0;
#X connect 29 0 32 0;
#X connect 30 0 29 0;
#X connect 30 1 28 0;
#X connect 31 0 30 0;
#X connect 32 0 17 0;
