#N canvas 892 231 315 464 10;
#X obj 38 29 inlet;
#X obj 38 427 outlet;
#X obj 38 65 unpack 0 0 0;
#X obj 38 399 pack 0 0 0;
#X obj 187 140 *;
#X obj 152 140 *;
#X obj 118 140 *;
#X obj 152 165 +;
#X obj 118 190 +;
#X obj 118 218 sqrt;
#X obj 38 140 atan2;
#X obj 38 106 t f f f;
#X obj 133 102 t f f f;
#X obj 66 315 /;
#X obj 187 103 t f f f;
#X obj 66 290 f;
#X obj 66 266 t b f;
#X obj 38 189 * 57.2958;
#X obj 66 342 expr (1.5708 - acos($f1)) * 57.2958;
#X text 117 399 azimuth elevation distance;
#X text 134 64 x y z (-1 to 1);
#X obj 38 218 ./circlewrap;
#X obj 66 369 ./circlewrap;
#X connect 0 0 2 0;
#X connect 2 0 11 0;
#X connect 2 1 12 0;
#X connect 2 2 14 0;
#X connect 3 0 1 0;
#X connect 4 0 7 1;
#X connect 5 0 7 0;
#X connect 6 0 8 0;
#X connect 7 0 8 1;
#X connect 8 0 9 0;
#X connect 9 0 3 2;
#X connect 9 0 16 0;
#X connect 10 0 17 0;
#X connect 11 0 10 0;
#X connect 11 1 6 0;
#X connect 11 2 6 1;
#X connect 12 0 10 1;
#X connect 12 1 5 0;
#X connect 12 2 5 1;
#X connect 13 0 18 0;
#X connect 14 0 4 0;
#X connect 14 1 4 1;
#X connect 14 2 15 1;
#X connect 15 0 13 0;
#X connect 16 0 15 0;
#X connect 16 1 13 1;
#X connect 17 0 21 0;
#X connect 18 0 22 0;
#X connect 21 0 3 0;
#X connect 22 0 3 1;
